<?xml version="1.0" standalone="no"?>
<!DOCTYPE svg PUBLIC "-//W3C//DTD SVG 1.1//EN" "http://www.w3.org/Graphics/SVG/1.1/DTD/svg11.dtd" >
<svg xmlns="http://www.w3.org/2000/svg">
<metadata>
This is a custom SVG font generated by IcoMoon.
<iconset grid="32"></iconset>
</metadata>
<defs>
<font id="icomoon" horiz-adv-x="1024" >
<font-face units-per-em="1024" ascent="960" descent="-64" />
<missing-glyph horiz-adv-x="1024" />
<glyph class="hidden" unicode="&#xf000;" d="M0,960L 1024 -64L0 -64 z" horiz-adv-x="0" />
<glyph unicode="&#xe0e7;" d="M 512,898.56C 263.168,898.56, 61.44,696.832, 61.44,448c0-113.766, 42.138-217.651, 111.718-296.909c 70.451,70.451, 167.014,110.029, 277.862,106.445
	c 141.363-4.557, 252.928-71.526, 316.928-180.378C 885.504,158.464, 962.56,294.195, 962.56,448C 962.56,696.832, 760.781,898.56, 512,898.56z M 732.314,287.386
	c-7.936-13.158-24.934-17.203-37.99-9.267c-104.346,63.744-235.622,78.131-390.246,42.854c-14.848-3.43-29.747,5.888-33.075,20.838
	c-3.43,14.848, 5.837,29.696, 20.787,33.075c 169.165,38.656, 314.317,21.965, 431.36-49.459C 736.154,317.44, 740.301,300.442, 732.314,287.386z
	 M 786.586,415.181c-9.984-16.282-31.283-21.35-47.565-11.315C 619.725,477.184, 437.658,498.432, 296.448,455.578C 278.118,450.048, 258.765,460.39, 253.235,478.618
	C 247.706,496.947, 258.048,516.301, 276.275,521.83c 161.331,48.998, 361.882,25.293, 498.995-58.982C 791.552,452.762, 796.723,431.565, 786.586,415.181z M 791.296,547.584
	C 648.192,632.678, 412.006,640.41, 275.354,598.989C 253.44,592.282, 230.246,604.723, 223.488,626.637C 216.883,648.602, 229.274,671.846, 251.238,678.451
	c 156.928,47.667, 417.69,38.451, 582.451-59.392c 19.763-11.725, 26.266-37.222, 14.541-56.934C 836.506,542.413, 811.11,535.962, 791.296,547.584z M 448.102,122.829
	c-63.386,2.048-116.173-22.682-154.675-68.915C 358.144,17.971, 432.64-2.56, 512-2.56c 38.246,0, 75.418,4.762, 110.848,13.773
	C 588.851,80.947, 529.613,120.218, 448.102,122.829z" />
<glyph unicode="&#xe0e6;" d="M 512,939.52c-271.462,0-491.52-220.058-491.52-491.52c0-124.109, 45.978-237.466, 121.856-323.891c 76.902,76.902, 182.221,120.064, 303.104,116.173
	c 154.214-5.018, 275.968-78.029, 345.754-196.813C 919.45,132.147, 1003.52,280.218, 1003.52,448C 1003.52,719.462, 783.462,939.52, 512,939.52z M 752.282,272.794
	c-8.653-14.336-27.187-18.739-41.472-10.086c-113.869,69.53-257.024,85.248-425.677,46.746c-16.179-3.738-32.461,6.4-36.096,22.733
	c-3.738,16.128, 6.349,32.41, 22.63,36.096c 184.576,42.189, 342.886,23.962, 470.579-53.965C 756.48,305.613, 761.037,287.027, 752.282,272.794z
	 M 811.622,412.211c-10.906-17.818-34.202-23.347-51.917-12.39c-130.253,80.026-328.806,103.219-482.867,56.474c-20.019-6.042-41.114,5.274-47.104,25.139
	c-6.042,20.019, 5.222,41.114, 25.139,47.104c 175.974,53.504, 394.752,27.597, 544.358-64.307C 816.998,453.171, 822.579,430.029, 811.622,412.211z
	 M 816.691,556.646C 660.531,649.472, 402.944,657.92, 253.85,612.71C 229.888,605.389, 204.595,618.906, 197.325,642.867C 190.106,666.829, 203.622,692.224, 227.482,699.392
	c 171.213,51.968, 455.68,41.933, 635.443-64.819c 21.555-12.8, 28.672-40.602, 15.923-62.157C 865.997,550.963, 838.246,543.898, 816.691,556.646z M 442.317,93.286
	c-69.171,2.202-126.72-24.73-168.755-75.162C 344.166-21.146, 425.472-43.52, 512-43.52c 41.728,0, 82.227,5.222, 120.934,15.002
	C 595.866,47.616, 531.2,90.419, 442.317,93.286z" />
<glyph unicode="&#xe0e5;" d="M 876.8,592.742l-104.755,288.563c-7.731,21.299-30.464,32.563-50.637,25.19L 25.242,652.39C 5.018,645.069-5.171,621.824, 2.56,600.525
		l 110.438-304.23L 112.998,459.366 c0,73.574, 58.778,133.376, 131.123,133.376l 183.962,0 l 219.392,154.010l 126.976-154.010L 876.8,592.742 z M 984.986,500.378L 244.122,500.378 
		c-21.504,0-39.014-18.381-39.014-41.062l0-482.355 c0-22.63, 17.459-41.062, 39.014-41.062l 740.864,0 c 21.555,0, 39.014,18.381, 39.014,41.062L 1024,459.366 
		C 1024,481.997, 1006.541,500.378, 984.986,500.378z M 928.461,38.554L 314.317,38.554 l0,88.013 l 94.464,219.904l 141.773-175.974l 132.966,136.294l 170.957,61.696l 73.984-164.966
		L 928.461,38.554 z" />
<glyph unicode="&#xe0e4;" d="M 530.286,484.571q0,8 -5.143,13.143t-13.143,5.143q-37.714,0 -64.571-26.857t-26.857-64.571q0-8 5.143-13.143t 13.143-5.143t 13.143,5.143t 5.143,13.143q0,22.857 16,38.857t 38.857,16q 8,0 13.143,5.143t 5.143,13.143zM 658.286,410.286q0-60.571 -42.857-103.429t-103.429-42.857t-103.429,42.857t-42.857,103.429t 42.857,103.429t 103.429,42.857t 103.429-42.857t 42.857-103.429zM 73.143,82.286l 877.714,0 l0,73.143 l-877.714,0 l0-73.143 zM 731.429,410.286q0,90.857 -64.286,155.143 t-155.143,64.286t-155.143-64.286t-64.286-155.143t 64.286-155.143t 155.143-64.286t 155.143,64.286t 64.286,155.143zM 146.286,777.143l 219.429,0 l0,73.143 l-219.429,0 l0-73.143 zM 73.143,667.429l 877.714,0 l0,67.429 l0,78.857 l-473.143,0 l-36.571-73.143l-368,0 l0-73.143 zM 1024,813.714l0-731.429 q0-30.286 -21.429-51.714t-51.714-21.429l-877.714,0 q-30.286,0 -51.714,21.429t-21.429,51.714l0,731.429  q0,30.286 21.429,51.714t 51.714,21.429l 877.714,0 q 30.286,0 51.714-21.429t 21.429-51.714z" />
<glyph unicode="&#xf097;" d="M 658.072,813.714l-585.143,0 l0-709.714 l 241.714,232l 50.857,48.571l 50.857-48.571l 241.714-232l0,709.714 zM 664.928,886.857q 13.143,0 25.143-5.143q 18.857-7.429 30-23.429t 11.143-35.429l0-736.571 q0-19.429 -11.143-35.429t-30-23.429q-10.857-4.571 -25.143-4.571q-27.429,0 -47.429,18.286l-252,242.286l-252-242.286q-20.571-18.857 -47.429-18.857q-13.143,0 -25.143,5.143q-18.857,7.429 -30,23.429t-11.143,35.429l0,736.571  q0,19.429 11.143,35.429t 30,23.429q 12,5.143 25.143,5.143l 598.857,0 z" horiz-adv-x="731" />
<glyph unicode="&#xf089;" d="M 475.429,941.714l0-765.143 l-256.571-134.857q-12.571-6.857 -22.857-6.857q-12,0 -18,8.286t-6,20.286q0,3.429 1.143,11.429l 49.143,285.714l-208,202.286q-14.286,15.429 -14.286,27.429q0,21.143 32,26.286l 286.857,41.714l 128.571,260q 10.857,23.429 28,23.429z" horiz-adv-x="512" />
<glyph unicode="&#xe0e3;" d="M 1010.176,107.093c-71.552,171.008-209.664,250.581-316.715,287.531c 47.787,65.579, 73.941,161.792, 74.965,279.467
	c 1.749,198.656-162.048,252.629-248.875,253.355c-86.869,0.768-251.563-50.347-253.355-249.003c-1.024-117.632, 23.467-214.229, 70.059-280.704
	c-107.648-34.987-247.253-112.299-321.707-281.941l-17.621-40.021l 40.491-16.64c 8.832-3.541, 218.709-88.32, 473.685-90.539
	c 255.019-2.261, 466.347,78.805, 475.264,82.219l 40.747,15.872L 1010.176,107.093z M 518.528,842.112c 17.024-0.341, 165.973-7.595, 164.565-167.296
	c-1.109-127.829-35.883-225.024-95.232-266.709l-73.429-51.541l-72.363,52.779c-58.667,42.752-91.691,140.544-90.539,268.373
	C 352.939,837.461, 502.016,842.069, 518.528,842.112z M 511.872,53.888c-172.629,1.493-326.315,44.672-398.549,68.565c 78.080,136.747, 210.389,190.165, 311.979,210.645
	l 89.131,17.963l 88.789-19.456c 101.248-22.315, 232.619-78.037, 308.352-216.064C 839.083,92.843, 685.013,52.352, 511.872,53.888z" />
<glyph unicode="&#xe0e2;" d="M 512,320c0,0-341.333,0-469.333-298.667c0,0, 213.76-85.333, 469.333-85.333s 469.333,85.333, 469.333,85.333C 853.333,320, 512,320, 512,320z M 512,362.667c 128,0, 213.333,128, 213.333,341.333s-213.333,213.333-213.333,213.333S 298.667,917.333, 298.667,704S 384,362.667, 512,362.667z" />
<glyph unicode="&#xe0e1;" d="M 640,347.179c0,0-263.765,0-362.667-230.827c0,0, 165.163-65.92, 362.667-65.92s 362.667,65.92, 362.667,65.92C 903.765,347.179, 640,347.179, 640,347.179z
			 M 640,380.075c 98.901,0, 164.821,98.901, 164.821,263.808S 640,808.747, 640,808.747s-164.821,0-164.821-164.864S 541.099,380.075, 640,380.075z M 320,492.587
			c 32.512,0, 60.416,13.483, 82.56,37.76C 394.368,563.499, 389.845,601.387, 389.845,643.883c0,63.36, 24.363,102.229, 54.357,126.208
			C 411.52,845.397, 320,845.568, 320,845.568s-135.765,0-135.765-135.765C 184.235,574.037, 238.549,492.587, 320,492.587z M 448,386.176l-4.608,53.675
			C 376.917,465.28, 320,465.451, 320,465.451s-217.216,0-298.667-190.080c0,0, 105.003-41.856, 240.853-52.053C 380.501,347.179, 448,386.176, 448,386.176z" />
<glyph unicode="&#xe0e0;" d="M 1006.421,108.373c-62.251,143.317-206.549,226.56-311.296,262.144c 64.171,52.437, 102.059,151.339, 102.059,280.875c0,172.16-143.915,217.685-220.032,217.685
	c-12.245,0-26.325-1.365-41.173-4.053C 495.104,901.76, 441.045,917.333, 398.037,917.333C 318.507,917.333, 200.192,865.195, 200.192,721.621c0-114.261, 33.365-201.771, 89.984-248.875
	c-89.088-23.296-210.432-80.811-272.597-223.957L0,208.299l 41.088-16.213c 3.669-1.451, 54.187-20.821, 130.645-37.931
	c-8.747-14.848-16.981-29.824-23.936-45.781l-17.621-40.491l 41.088-16.213C 178.859,48.725, 359.040-21.333, 577.109-21.333s 398.251,70.059, 405.845,73.003L 1024,67.883
	L 1006.421,108.373z M 711.851,651.349c0-146.389-51.627-237.312-134.699-237.312s-134.699,90.923-134.699,237.312c0,124.587, 112.427,132.096, 134.485,132.352
	C 599.424,783.445, 711.851,775.936, 711.851,651.349z M 398.037,832C 402.347,832, 419.413,831.275, 438.912,824.96c-45.653-32.853-81.792-87.296-81.792-173.611
	c0-46.891, 5.077-89.685, 14.421-127.829C 308.736,543.531, 285.525,635.093, 285.525,721.621C 285.525,825.344, 379.477,831.787, 398.037,832z M 398.037,403.371
	c 0.512,0, 12.373-0.256, 30.976-2.645c 18.603-22.955, 40.491-40.704, 65.152-52.864c-67.157-13.44-162.816-45.525-240.384-122.24
	c-55.893,9.003-103.765,21.077-135.893,30.72C 209.493,400.555, 389.845,403.328, 398.037,403.371z M 577.109,64c-139.776,0-280.192,32-344.363,51.797
	c 10.112,29.312, 42.069,68.053, 53.163,81.365c 119.168,115.413, 289.451,117.845, 291.072,117.845c 0.341,0, 31.104-0.469, 74.88-9.216
	c 76.032-19.2, 194.133-89.387, 254.891-189.909C 842.624,96.085, 717.099,64, 577.109,64z" />
<glyph unicode="&#xe0df;" d="M 513.056-0.128c0,0-353.184,218.656-353.184,394.848c0,97.696, 55.84,194.272, 161.344,209.216
	L 321.216,672.576 c0,105.824, 85.984,191.552, 192,191.552c 106.048,0, 192-85.76, 192-191.552l0-68.672 c 101.824-15.2, 158.944-109.888, 158.944-209.152
	C 864.128,216.384, 513.056-0.128, 513.056-0.128z M 463.2,193.696l 97.984,0 l-41.536,111.040c 23.296,3.264, 41.536,22.432, 41.536,46.592
	c0,26.432-21.504,47.904-48,47.904c-26.496,0-48-21.472-48-47.904c0-22.976, 16.576-41.28, 38.208-45.92L 463.2,193.696z M 641.184,672.576
	c0,70.528-57.312,127.712-128,127.712c-70.688,0-128-57.184-128-127.712l0-69.824 c 88-19.424, 127.84-104.32, 127.84-104.32s 35.52,85.888, 128.128,104.544L 641.152,672.576 z" />
<glyph unicode="&#xe0de;" d="M 193.856,741.28l 21.952-21.952l-89.856-89.856l 70.016-70.016l 90.272,90.272l 20.512-20.512
			l-90.272-90.304l 69.12-69.088l 205.312,205.312L 240.928,923.648L 36.352,719.072L 104,651.392L 193.856,741.28z M 739.168,426.912l-205.312-205.344l 69.088-69.088
			l 90.304,90.272l 20.512-20.512l-90.272-90.272l 70.016-70.016l 89.824,89.856l 21.952-21.952l-89.824-89.856l 67.616-67.648l 204.608,204.608L 739.168,426.912z
			 M 954.304,689.568c 24.992,25.024, 25.184,65.44, 0.384,90.272l-112.384,112.352c-24.8,24.8-65.248,24.672-90.24-0.384l-69.44-69.44l 202.24-202.24
			L 954.304,689.568z M 108.736,129.856l 83.936-83.936l 169.088,60.064l-192.96,192.96L 108.736,129.856z M 660.8,801.824L 184.48,325.472l 203.808-203.808
			L 864.64,598.016L 660.8,801.824z M 277.024,325.888L 660.416,709.28l 22.336-22.336L 299.328,303.52L 277.024,325.888z M 321.696,281.184l 383.36,383.392
			l 22.336-22.336L 344,258.88L 321.696,281.184z M 366.368,236.544L 749.76,619.936l 22.304-22.336l-383.36-383.392L 366.368,236.544z M 62.528-0.32
			l 98.112,35.744l-62.368,62.368L 62.528-0.32z" />
<glyph unicode="&#xe0dd;" d="M 927.968,348.96l-36.352-247.328l-73.568,71.36c-58.272-49.248-166.336-116.256-323.328-116.256
	c-157.92,0-267.136,65.376-325.248,112.224l-67.136-65.12l-38.336,245.088l 252.576-37.184l-69.6-67.552c 48.832-36.256, 125.44-79.968, 201.728-79.968
	l-0.224,403.488c-55.712,19.392-95.808,70.624-95.808,131.36c0,77.376, 64.608,140.096, 144.32,140.096c 79.68,0, 144.32-62.72, 144.32-140.096
	c0-61.664-41.344-113.44-98.368-132.128c 0.352-78.72, 1.632-404.224-0.128-404.224c 72.96,0, 148.288,47.488, 197.344,85.888l-65.024,63.136L 927.968,348.96
	z M 571.392,701.344c0,39.872-33.312,72.224-74.4,72.224s-74.432-32.352-74.432-72.224c0-39.904, 33.344-72.256, 74.432-72.256
	S 571.392,661.44, 571.392,701.344z" />
<glyph unicode="&#xe0dc;" d="M 1011.54,513.954c-16.248,0-55.366-18.008-83.258-31.986l-63.492,0 
	c-3.838,81.34-36.496,154.97-88.12,211.104l 41.964,41.996c 29.81,9.756, 73.63,25.556, 85.69,37.614c 18.744,18.744, 18.744,49.13,0,67.874
	c-18.744,18.712-49.098,18.712-67.842,0c-11.482-11.482-26.42-51.944-36.24-81.498l-44.876-44.844C 698.978,765.552, 625.188,797.762, 543.752,801.152L 543.752,860.55 
	c 14.138,27.988, 33.968,70.176, 33.968,87.224c0,26.484-21.494,47.978-47.978,47.978s-47.978-21.494-47.978-47.978c0-16.248, 18.008-55.366, 31.986-83.258l0-63.492 
	c-81.34-3.838-155.002-36.464-211.136-88.12L 260.65,754.902c-9.756,29.81-25.588,73.662-37.646,85.722c-18.712,18.712-49.098,18.712-67.842,0
	c-18.744-18.744-18.744-49.13,0-67.874C 166.644,761.234, 207.074,746.33, 236.628,736.51l 44.876-44.876c-50.888-55.942-82.97-128.998-86.776-209.632L 131.236,482.002 
	c-27.86,13.978-66.978,31.986-83.258,31.986c-26.516,0-47.978-21.494-47.978-47.978s 21.462-47.978, 47.978-47.978c 17.048,0, 59.238,19.83, 87.224,33.968l 59.428,0 
	c 3.358-81.434, 35.6-155.226, 86.904-211.616l-44.844-44.876c-29.586-9.82-69.984-24.724-81.498-36.24c-18.744-18.744-18.744-49.13,0-67.842
	c 18.744-18.744, 49.13-18.744, 67.842,0c 12.058,12.026, 27.86,55.846, 37.646,85.658l 41.996,41.996c 56.134-51.624, 129.766-84.282, 211.104-88.12l0-63.492 
	c-13.978-27.86-31.986-67.010-31.986-83.258c0-26.484, 21.494-47.978, 47.978-47.978s 47.978,21.494, 47.978,47.978c0,17.048-19.83,59.238-33.968,87.224l0,59.428 
	c 81.434,3.326, 155.226,35.568, 211.616,86.872l 44.876-44.844c 9.82-29.554, 24.724-69.984, 36.24-81.466c 18.744-18.744, 49.098-18.744, 67.842,0
	c 18.744,18.712, 18.744,49.098,0,67.842c-12.058,12.058-55.878,27.86-85.69,37.646l-41.964,41.964c 52.072,56.614, 84.826,130.98, 88.216,213.12l 59.428,0 
	c 27.988-14.17, 70.144-33.968, 87.224-33.968c 26.484,0, 47.978,21.494, 47.978,47.978S 1038.024,513.954, 1011.54,513.954z M 326.732,646.374l 113.612-113.612
	c-10.94-14.618-18.2-31.89-20.95-50.76L 258.698,482.002 C 262.376,544.98, 287.358,602.106, 326.732,646.374z M 258.57,451.998l 160.63,0 
	c 2.494-19.672, 9.852-37.678, 21.174-52.776l-113.644-113.612C 286.974,330.326, 261.864,388.22, 258.57,451.998z M 513.75,194.932
	c-63.716,3.71-121.384,29.234-165.876,69.408l 113.548,113.548c 14.938-11.578, 32.722-19.384, 52.328-22.198L 513.75,194.932 z M 513.75,576.326
	c-19.608-2.814-37.392-10.652-52.328-22.23l-113.548,113.548c 44.492,40.142, 102.162,65.698, 165.876,69.408L 513.75,576.326 z M 800.82,481.97l-160.726,0 
	c-2.814,19.576-10.62,37.392-22.198,52.328l 113.548,113.548C 771.586,603.386, 797.11,545.684, 800.82,481.97z M 710.142,669.020l-113.612-113.644
	c-15.13,11.322-33.104,18.68-52.776,21.174L 543.752,737.182 C 607.532,733.886, 665.426,708.778, 710.142,669.020z M 543.752,194.836l0,160.6 
	c 19.672,2.494, 37.678,9.852, 52.776,21.142l 113.612-113.612C 665.426,223.206, 607.532,198.098, 543.752,194.836z M 731.412,284.14l-113.548,113.548
	c 11.994,15.416, 19.862,33.968, 22.422,54.312l 160.6,0 C 797.654,387.484, 772.002,329.046, 731.412,284.14z" horiz-adv-x="1056" />
<glyph unicode="&#xe0db;" d="M 768-65.312L 192-65.312 c-35.36,0-64,28.576-64,63.872L 128,769.664 c0,35.264, 28.64,63.84, 64,63.84l 160,0 l0-66.528 
	L 224,766.976 c-17.664,0-32-14.272-32-31.936l0-704.544 c0-17.696, 14.336-31.936, 32-31.936l 512,0 c 17.696,0, 32,14.24, 32,31.936L 768,735.040 c0,17.664-14.304,31.936-32,31.936l-128,0 
	L 608,833.504 l 160,0 c 35.328,0, 64-28.608, 64-63.84l0-771.104 C 832-36.736, 803.328-65.312, 768-65.312z M 352,575.392l 352,0 l0-31.936 L 352,543.456 L 352,575.392 z M 352,479.584l 352,0 l0-31.936 
	L 352,447.648 L 352,479.584 z M 352,383.744l 352,0 l0-31.936 L 352,351.808 L 352,383.744 z M 352,287.936l 352,0 L 704,256 L 352,256 L 352,287.936 z M 704,64.448L 352,64.448 L 352,96.32 l 352,0 L 704,64.448 z M 352,192.128l 352,0 l0-31.936 L 352,160.192 
	L 352,192.128 z M 256,576.032l 32,0 l0-31.936 L 256,544.096 L 256,576.032 z M 256,480.224l 32,0 l0-31.936 L 256,448.288 L 256,480.224 z M 256,384.448l 32,0 l0-31.936 L 256,352.512 L 256,384.448 z M 256,288.64l 32,0 l0-31.936 L 256,256.704 L 256,288.64 z
	 M 288,65.056L 256,65.056 l0,31.936 l 32,0 L 288,65.056 z M 256,192.8l 32,0 l0-31.936 L 256,160.864 L 256,192.8 z M 672,733.088c 17.696,0, 32-14.304, 32-31.968c0-17.632,0-61.856,0-61.856L 256,639.264 
	c0,0,0,44.224,0,61.856c0,17.664, 14.304,31.968, 32,31.968l 96,0 c0,0, 0.384,45.408, 0.384,97.312c0,53.888, 41.6,98.944, 95.616,98.944
	s 97.056-47.36, 97.056-99.264C 577.056,774.176, 576,733.088, 576,733.088L 672,733.088 z M 480,833.504c-17.696,0-32-14.272-32-31.904c0-17.664, 14.304-31.936, 32-31.936
	s 32,14.272, 32,31.936C 512,819.232, 497.696,833.504, 480,833.504z" />
<glyph unicode="&#xe0da;" d="M 832-64L 192-64 c-35.36,0-64,28.608-64,63.872L 128,800.32 c0,35.296, 28.64,63.872, 64,63.872l 192,0 L 384,800.32 L 224,800.32 
	c-17.664,0-32-14.272-32-31.936l0-736.576 c0-17.632, 14.336-31.936, 32-31.936l 576,0 c 17.696,0, 32,14.304, 32,31.936L 832,768.384 c0,17.664-14.304,31.936-32,31.936l-160,0 
	L 640,864.192 l 192,0 c 35.328,0, 64-28.608, 64-63.872l0-800.448 C 896-35.392, 867.328-64, 832-64z M 800,768.384l0-736.576 L 224,31.808 L 224,768.384 l 32,0 l0-129.76 l 512,0 L 768,768.384 L 800,768.384 z M 352,542.816l-32,0 
	l0-31.936 l 32,0 L 352,542.816 z M 352,478.944l-32,0 l0-31.936 l 32,0 L 352,478.944 z M 352,415.072l-32,0 l0-31.936 l 32,0 L 352,415.072 z M 352,351.2l-32,0 l0-31.936 l 32,0 L 352,351.2 z M 352,287.328l-32,0 l0-31.936 
	l 32,0 L 352,287.328 z M 352,223.424l-32,0 l0-31.936 l 32,0 L 352,223.424 z M 352,159.552l-32,0 l0-31.936 l 32,0 L 352,159.552 z M 704,542.816L 384,542.816 l0-31.936 l 320,0 L 704,542.816 z M 704,478.944L 384,478.944 l0-31.936 l 320,0 
	L 704,478.944 z M 704,415.072L 384,415.072 l0-31.936 l 320,0 L 704,415.072 z M 704,351.2L 384,351.2 l0-31.936 l 320,0 L 704,351.2 z M 704,287.328L 384,287.328 l0-31.936 l 320,0 L 704,287.328 z M 704,223.424L 384,223.424 l0-31.936 l 320,0 
	L 704,223.424 z M 704,159.552L 384,159.552 l0-31.936 l 320,0 L 704,159.552 z M 704,768.384c 17.696,0, 32-14.272, 32-31.936c0-17.632,0-63.872,0-63.872L 288,672.576 c0,0,0,46.24,0,63.872
	c0,17.664, 14.304,31.936, 32,31.936l 96,0 c0,0, 0.384,40.768, 0.384,92.672C 416.384,914.944, 457.984,960, 512,960s 97.056-47.36, 97.056-99.296
	C 609.056,804.832, 608,768.384, 608,768.384L 704,768.384 z M 512,864.192c-17.696,0-32-14.272-32-31.936c0-17.632, 14.304-31.936, 32-31.936s 32,14.304, 32,31.936
	C 544,849.92, 529.696,864.192, 512,864.192z" />
<glyph unicode="&#xe0d9;" d="M 252.896,735.264c0-17.6,0-63.776,0-63.776l 448.448,0 c0,0,0,46.176,0,63.776
		c0,17.632-14.24,31.904-31.872,31.904l-95.68,0 c0,0, 1.088,36.416, 1.088,92.224c0,51.808-44.928,99.136-98.752,99.136s-95.296-44.992-95.296-98.848
		c0-51.808-0.384-92.512-0.384-92.512L 284.8,767.168 C 267.168,767.168, 252.896,752.896, 252.896,735.264z M 476.128,862.816c 17.6,0, 31.904-14.272, 31.904-31.872
		c0-17.632-14.304-31.904-31.904-31.904s-31.904,14.272-31.904,31.904C 444.224,848.544, 458.528,862.816, 476.128,862.816zM 765.152,767.168l0-316.832 c0,0, 27.52,30.368, 63.744,44.928L 828.896,799.040 
		c0,35.232-30.56,63.776-65.76,63.776l-157.472,0 L 605.664,799.040 l 127.552,0 C 750.848,799.040, 765.152,784.768, 765.152,767.168zM 410.336-0.192L 220.992-0.192 c-17.6,0-31.872,14.24-31.872,31.872L 189.12,767.168 
		c0,17.6, 14.272,31.872, 31.872,31.872l 129.568,0 L 350.56,862.816 L 189.12,862.816 c-35.232,0-63.776-28.576-63.776-63.776l0-799.232 C 125.344-35.424, 153.888-64, 189.12-64l 290.592,0 
		C 467.232-42.944, 444.928-18.624, 410.336-0.192zM 765.152,31.68c0-17.632-14.304-31.872-31.904-31.872l-87.328,0 
		c-16.064-21.504-31.2-42.88-45.12-63.808l 162.368,0 c 35.2,0, 65.76,28.576, 65.76,63.808l0,196.128 c-21.12-17.376-42.496-36.992-63.744-58.56L 765.184,31.68 zM 898.656,290.368c-35.936,79.872-15.36,144.736-10.24,219.616
		c-210.528-104.8-344.032-419.296-344.032-419.296l-82.144,154.752l-169.44-99.808c 71.904-24.928, 174.592-104.8, 261.888-209.632
		C 616.256,45.824, 806.24,270.368, 898.656,290.368z" />
<glyph unicode="&#xe0d8;" d="M 1044.448,398.048c0,0-146.944,149.824-349.44,149.824c-197.856,0-393.44-149.824-393.44-149.824
	l-109.856,45.856l0-134.528 c 17.312-5.888, 29.984-21.824, 29.984-41.12c0-19.488-12.928-35.456-30.496-41.216l 32.48-90.592L 127.808,136.448 l 32.768,91.36
	c-15.744,6.688-26.752,22.24-26.752,40.448c0,17.824, 10.688,32.992, 25.952,39.904l0,149.088 L0,523.872l 703.008,315.552l 644.992-319.52L 1044.448,398.048z
	 M 687.008,471.968c 203.712,0, 303.552-107.84, 303.552-107.84l0-223.68 c0,0-103.84-83.872-319.52-83.872s-287.584,83.872-287.584,83.872l0,223.68 
	C 383.456,364.128, 483.296,471.968, 687.008,471.968z M 683.008,104.512c 141.184,0, 255.648,28.64, 255.648,63.904s-114.464,63.904-255.648,63.904
	s-255.616-28.64-255.616-63.904S 541.824,104.512, 683.008,104.512z" horiz-adv-x="1348" />
<glyph unicode="&#xe0d7;" d="M 896-32L 128-32 c-53.024,0-96,43.008-96,96L 32,512 c0,53.024, 42.976,96, 96,96l 64,0 l 271.776,208.576
	C 462.56,821.536, 461.728,826.656, 461.728,832c0,35.328, 28.672,64, 64,64s 63.968-28.672, 63.968-64c0-11.488-3.264-22.144-8.608-31.488L 832,608l 64,0 
	c 52.992,0, 96-42.976, 96-96l0-448 C 992,11.008, 948.992-32, 896-32z M 546.272,173.344l 128.992,0 l0,24.256 l-101.76,0 l0,182.016 l-27.264,0 L 546.24,173.344 z M 361.696,173.344
	l 22.592,62.496l 86.656,0 l 23.744-62.496l 31.104,0 l-84.096,206.24l-29.568,0 l-79.296-206.24L 361.696,173.344 z M 170.944,355.392
	c-5.888-9.088-8.832-18.848-8.832-29.248c0-9.504, 2.4-18.048, 7.232-25.728s 12.16-14.048, 21.984-19.264c 7.552-4.032, 20.768-8.32, 39.648-12.864
	s 31.072-7.904, 36.608-10.048c 8.608-3.328, 14.784-7.328, 18.592-12.16s 5.728-10.432, 5.728-16.896c0-6.336-1.952-12.256-5.824-17.664
	s-9.792-9.664-17.76-12.768c-7.936-3.136-17.088-4.672-27.456-4.672c-11.68,0-22.176,2.016-31.52,6.144
	c-9.376,4.064-16.256,9.44-20.672,16.096s-7.296,15.168-8.512,25.504l-25.76-2.24c 0.384-13.792, 4.16-26.112, 11.328-37.024
	c 7.168-10.944, 17.024-19.136, 29.6-24.576c 12.608-5.44, 28.192-8.16, 46.816-8.16c 14.656,0, 27.872,2.688, 39.616,8.096
	c 11.744,5.376, 20.736,12.864, 27.008,22.592c 6.272,9.696, 9.408,20, 9.408,30.976c0,11.040-2.88,20.768-8.608,29.248
	c-5.728,8.512-14.592,15.488-26.624,20.992c-8.288,3.744-23.456,8.128-45.536,13.12c-22.112,5.024-35.776,9.952-40.992,14.752
	c-5.344,4.736-8,10.848-8,18.24c0,8.576, 3.776,15.84, 11.296,21.888c 7.52,6.048, 19.488,9.088, 35.936,9.088
	c 15.808,0, 27.744-3.328, 35.808-9.92c 8.096-6.624, 12.8-16.416, 14.208-29.344l 26.24,1.984c-0.48,12.096-3.84,22.912-10.080,32.448
	c-6.272,9.536-15.232,16.768-26.88,21.696s-25.088,7.36-40.352,7.36c-13.856,0-26.432-2.336-37.76-7.040
	C 185.44,371.328, 176.832,364.48, 170.944,355.392z M 565.696,782.4C 554.688,773.536, 540.928,768, 525.728,768c-21.184,0-39.808,10.4-51.456,26.272L 224,608l 576,0 
	L 565.696,782.4z M 861.952,197.6l-126.496,0 L 735.456,267.84 l 113.984,0 l0,24.256 l-113.984,0 l0,63.264 l 121.76,0 l0,24.256 l-148.992,0 l0-206.24 l 153.76,0 L 861.984,197.6 z M 426.048,358.080
	c 3.328-11.296, 8.192-25.6, 14.624-42.976l 21.728-57.024l-70.368,0 l 22.88,60.384C 419.616,331.488, 423.328,344.704, 426.048,358.080z" />
<glyph unicode="&#xe0d6;" d="M 269.418,666.736l 669.726,0 c 68.96,0, 68.96,71.516, 2.684,71.516L 478.92,738.252 
			c-26.524,0-39.752,39.752-39.752,39.752S 420.6,836.324, 383.468,836.324L 38.698,836.324 c-50.362,0-37.132-58.32-37.132-58.32s 76.918-654.132, 82.222-693.916
			S 130.22,32.576, 130.22,32.576l 90.146,578.492C 227.012,653.474, 256.156,665.394, 269.418,666.736z M 1075.562,641.588L 290.636,641.588 c-23.424,0-42.438-18.982-42.438-42.406
			l-82.19-524.072c0-23.456, 19.014-42.438, 42.438-42.438l 784.926,0 c 23.392,0, 42.438,18.982, 42.438,42.438l 82.19,524.072
			C 1118,622.606, 1099.050,641.588, 1075.562,641.588z" horiz-adv-x="1118" />
<glyph unicode="&#xe0d5;" d="M0,512l0,96 l 120,0 l 240.992,241.024C 359.392,853.792, 358.016,858.656, 358.016,864
	c0,26.528, 21.472,48, 48,48c 26.496,0, 48-21.472, 48-48c0-26.496-21.504-48-48-48c-3.552,0-6.688,1.312-9.984,2.016L 185.984,608l 619.328,0 
	l-208.8,210.528C 592.384,817.376, 588.448,816, 584,816c-26.496,0-48,21.504-48,48c0,26.528, 21.504,48, 48,48s 48-21.472, 48-48
	c0-4.896-1.44-9.376-2.816-13.856L 871.328,608L 992,608 l0-96 L0,512 z M 795.808,35.136c-9.376-37.504-35.36-35.424-35.36-35.424L 229.408-1.312
	c-27.072,0-34.336,34.304-34.336,34.304L 54.688,479.552l 882.368,0.832L 795.808,35.136z M 319.968,416l-32,0 l0-160 l 32,0 L 319.968,416 z M 319.968,224l-32,0 l0-160 l 32,0 L 319.968,224 z M 383.968,416
	L 352,416 l0-160 l 31.968,0 L 383.968,416 z M 383.968,224L 352,224 l0-160 l 31.968,0 L 383.968,224 z M 447.968,416l-32,0 l0-160 l 32,0 L 447.968,416 z M 447.968,224l-32,0 l0-160 l 32,0 L 447.968,224 z M 512,416l-32,0 l0-160 l 32,0 L 512,416 z M 512,224l-32,0 l0-160 l 32,0 L 512,224 z
	 M 576,416l-32,0 l0-160 l 32,0 L 576,416 z M 576,224l-32,0 l0-160 l 32,0 L 576,224 z M 640,416l-32,0 l0-160 l 32,0 L 640,416 z M 640,224l-32,0 l0-160 l 32,0 L 640,224 z M 704,416l-32,0 l0-160 l 32,0 L 704,416 z M 704,224l-32,0 l0-160 l 32,0 L 704,224 z" />
<glyph unicode="&#xe0d4;" d="M 256,128c0-52.992, 42.976-96, 96-96l 320,0 c 52.992,0, 96,43.008, 96,96l 64,512L 192,640 L 256,128z M 608,544l 64,0 l0-416 l-64,0 
			L 608,544 z M 480,544l 64,0 l0-416 l-64,0 L 480,544 z M 352,544l 64,0 l0-416 l-64,0 L 352,544 z M 816,768L 608,768 c0,0-14.336,64-32,64l-128,0 c-17.696,0-32-64-32-64L 208,768 C 181.472,768, 160,746.528, 160,720S 160,672, 160,672
			l 704,0 c0,0,0,21.472,0,48S 842.496,768, 816,768z" />
<glyph unicode="&#xe0d3;" d="M 789.568,258.912c0,0, 106.56,72.896, 106.56,216.672c0,214.016-226.816,293.152-348.768,291.040
			c-121.984-2.144-158.336-34.24-158.336-34.24S 347.52,762.56, 303.52,787.84C 269.856,800.96, 262.048,802.848, 238.656,795.328c-18.72,0-6.944-31.168, 0.576-42.4
			c 7.456-11.232, 43.712-73.28, 43.712-73.28s-76.096-78.368-81.728-129.888c0,0.928-35.84,0.288-55.488,0.288s-17.792-21.408-17.792-21.408
			l 0.544-150.848c0,0-1.216-21.408, 16.608-21.408c 17.792,0, 55.616-0.416, 55.616-0.416s 53.216-77.28, 86.944-91.328
			c0-0.928-29.152-80.096-29.152-80.096s-14.048-24.352, 11.232-33.728c 25.28-9.344, 91.232-37.024, 119.328-45.472
			c 28.064-8.416, 32.096,10.688, 32.096,10.688l 27.808,60.064l 181.92-0.288l 27.808-61.92c0,0, 5.344-28.736, 42.784-12.832
			c 37.472,15.904, 78.368,34.784, 109.28,50.688c 30.88,15.904, 10.56,45.632, 10.56,45.632L 789.568,258.912z M 298.304,519.552
			c-17.056,0-30.88,13.856-30.88,30.912s 13.824,30.88, 30.88,30.88s 30.912-13.824, 30.912-30.88S 315.36,519.552, 298.304,519.552z M 733.6,615.808
			c-9.856-11.68-16.288-3.072-24.224-0.736c0,0-33.632,31.2-83.040,45.76c-51.168,15.040-105.024,7.776-105.024,7.776
			c-7.936,2.336-17.568,2.592-17.632,14.848c 0.416,15.136, 18.784,15.264, 18.56,15.776c0,0, 60.608,5.6, 111.328-9.312
			c 49.888-14.656, 88-46.528, 88-46.528S 741.952,629.344, 733.6,615.808z" />
<glyph unicode="&#xf09e;" d="M 219.143,192q0-45.714 -32-77.714t-77.714-32t-77.714,32t-32,77.714t 32,77.714t 77.714,32t 77.714-32t 32-77.714zM 511.714,121.714q 1.143-16 -9.714-27.429q-10.286-12 -26.857-12l-77.143,0 q-14.286,0 -24.571,9.429t-11.429,23.714q-12.571,130.857 -105.429,223.714t-223.714,105.429q-14.286,1.143 -23.714,11.429t-9.429,24.571l0,77.143 q0,16.571 12,26.857q 9.714,9.714 24.571,9.714l 2.857,0 q 91.429-7.429 174.857-46 t 148-103.714q 65.143-64.571 103.714-148t 46-174.857zM 804.285,120.571q 1.143-15.429 -10.286-26.857q-10.286-11.429 -26.286-11.429l-81.714,0 q-14.857,0 -25.429,10t-11.143,24.286q-6.857,122.857 -57.714,233.429t-132.286,192t-192,132.286t-233.429,58.286q-14.286,0.571 -24.286,11.143t-10,24.857l0,81.714 q0,16 11.429,26.286q 10.286,10.286 25.143,10.286l 1.714,0 q 149.714-7.429 286.571-68.571t 243.143-168 q 106.857-106.286 168-243.143t 68.571-286.571z" horiz-adv-x="804" />
<glyph unicode="&#xe0d2;" d="M 1100.694,493.478C 985.094,659.152, 793.404,767.826, 576.054,767.826C 359.28,767.826, 168.092,659.726, 52.324,494.75
	L 1.342,536.772C 129.206,715.166, 337.98,831.77, 574.52,831.77c 237.882,0, 447.804-117.874, 575.48-297.946L 1100.694,493.478z M 576.054,639.888c 177.434,0, 333.692-90.37, 425.476-227.58
	l-48.874-39.988C 873.114,494.51, 734.562,575.918, 576.054,575.918C 417.93,575.918, 279.642,494.942, 200.004,373.424L 151.202,413.53C 243.13,550.020, 399.074,639.888, 576.054,639.888z M 576.054,448.006
	c 116.534,0, 217.47-64.592, 273.388-160.040l-48.684-39.844C 757.706,328.646, 673.732,384.036, 576.054,384.036c-97.414,0-181.196-55.080-224.394-135.292L 303.002,288.73
	C 359.016,383.774, 459.76,448.006, 576.054,448.006z M 576.054,256.1c 58.074,0, 106.568-38.956, 122.164-91.976L 576.054,64.216l-122.044,100.288C 469.75,217.408, 518.17,256.1, 576.054,256.1z" horiz-adv-x="1150" />
<glyph unicode="&#xe0d1;" d="M 831.808,443.392L 440.608,834.592L 64,833.152l 0.576-346.592L 469.76,81.376
			c 25.408-25.44, 66.304-25.792, 91.328-0.768l 271.488,271.52C 857.568,377.12, 857.248,417.984, 831.808,443.392z M 226.592,609.536
			c-35.328,0-64,28.672-64,64s 28.672,64, 64,64c 35.36,0, 64-28.672, 64-64S 261.952,609.536, 226.592,609.536z M 923.072,442.624L 531.872,833.824L 484.8,833.664
			l 392.64-390.624c 25.44-25.44, 25.76-66.272, 0.736-91.296l-271.488-271.52c-6.624-6.624-14.432-11.328-22.688-14.432
			c 23.072-8.864, 49.952-4.32, 68.32,14.016l 271.552,271.52C 948.864,376.352, 948.512,417.216, 923.072,442.624z" />
<glyph unicode="&#xe0d0;" d="M 512,560C 512,663.083, 428.416,746.667, 325.333,746.667S 138.667,663.083, 138.667,560c0-48.085, 6.784-118.784, 74.667-186.667S 512,149.333, 512,149.333
			s 230.784,156.117, 298.667,224s 74.667,138.581, 74.667,186.667C 885.333,663.083, 801.749,746.667, 698.667,746.667S 512,663.083, 512,560" />
<glyph unicode="&#xf308;" d="M 1024,320q 2-18 2-32t-2-32l-64,0 q-3-24 -9-48l 59-25q-9-29 -24-59l-60,25q-11-21 -27-41l 45-45q-20-25 -45-45l-45,45q-20-16 -41-27l 25-59q-30-16 -59-25l-25,59q-24-6 -48-9l0-64 q-18-2 -32-2t-32,2l0,64 q-24,3 -48,9l-24-59q-30,9 -60,25l 25,59
q-21,11 -40,27l-46-45q-25,20 -45,45l 45,45q-15,20 -27,41l-59-25q-16,30 -25,59l 60,25q-7,24 -10,48l-64,0 q-2,18 -2,32t 2,32l 64,0 q 3,24 10,48l-60,25q 9,29 25,59l 59-25q 12,21 27,41l-45,45q 20,25 45,45l 46-45q 19,16 40,27l-25,60q 30,15 60,24l 24-59q 24,7 48,9l0,64 
q 18,2 32,2t 32-2l0-64 q 24-2 48-9l 25,59q 29-9 59-24l-25-60q 21-12 41-27l 45,45q 25-20 45-45l-45-45q 16-20 27-41l 60,25q 15-30 24-59l-59-25q 6-24 9-48l 64,0 zM 674,448q-66,0 -113-47t-47-113t 47-113t 113-47t 113,47t 47,113t-47,113t-113,47zM 449,662l-12-31
q-3-6 -9.5-9t-12.5,0l-57,23q-17-24 -41-40l 24-57q 3-7 0-13t-9-9l-31-13q-6-3 -12.5,0t-9.5,9l-24,57q-16-3 -29-3q-12,0 -28,3l-24-57q-2-6 -8.5-9t-13.5,0l-30,13q-7,2 -9.5,8.5t-0.5,13.5l 24,56q-24,17 -41,41l-57-24q-6-2 -12.5,0.5t-9.5,8.5l-12,31
q-3,7 -0.5,13.5t 9.5,8.5l 56,24q-3,16 -3,29q0,12 3,29l-57,23q-6,3 -8.5,9t-0.5,13l 13,31q 3,6 9,9t 13,0l 57-23q 16,24 40,40l-23,57q-3,7 -0.5,13t 9.5,9l 31,13q 6,3 12.5,0t 9.5-9l 23-57q 16,3 29,3t 29-3l 23,57q 3,7 9.5,9.5t 12.5-0.5l 31-13q 7-2 9.5-8.5t-0.5-12.5
l-23-57q 24-17 41-41l 56,24q 7,2 13.5-0.5t 8.5-8.5l 13-31q 3-7 0.5-13.5t-9.5-8.5l-57-24q 3-16 3-29t-3-29l 57-23q 7-3 9.5-9t-0.5-13zM 226.5,832q-39.5,0 -68-28t-28.5-68t 28.5-68t 68-28t 67.5,28t 28,68t-28,68t-67.5,28z" />
<glyph unicode="&#xf307;" d="M 992,193l-108,0 q-12-35 -38-64l 47-83q 6-12 2.5-24t-13.5-19l-53-31q-11-6 -23-3t-18,15l-48,84q-20-4 -36-4t-36,4l-48-84q-6-12 -18-15t-23,3l-53,31q-10,7 -13.5,19t 2.5,24l 47,83q-26,29 -38,64l-108,0 q-13,0 -22.5,9t-9.5,23l0,64 q0,13 9.5,22.5t 22.5,9.5l 108,0 
q 12,34 38,63l-47,83q-6,12 -2.5,24t 13.5,19l 53,31q 11,6 23,3t 18-14l 48-85q 20,4 36,4t 36-4l 48,85q 6,11 18,14t 23-3l 53-31q 10-7 13.5-19t-2.5-24l-47-83q 26-29 38-63l 108,0 q 13,0 22.5-9.5t 9.5-22.5l0-64 q0-14 -9.5-23t-22.5-9zM 704,321q-27,0 -45.5-19
t-18.5-45.5t 18.5-45t 45.5-18.5t 45.5,18.5t 18.5,45t-18.5,45.5t-45.5,19zM 608,577l-108,0 q-12-35 -38-64l 47-83q 6-11 2.5-23.5t-13.5-19.5l-53-31q-11-6 -23-2.5t-18,14.5l-48,84q-19-3 -36-3t-36,3l-48-84q-6-11 -18-14.5t-23,2.5l-53,31q-10,7 -13.5,19.5
t 2.5,23.5l 47,83q-26,29 -38,64l-108,0 q-13,0 -22.5,9t-9.5,23l0,64 q0,13 9.5,22.5t 22.5,9.5l 108,0 q 12,34 38,64l-47,83q-6,11 -2.5,23.5t 13.5,18.5l 53,31q 11,7 23,3.5t 18-14.5l 48-85q 20,4 36,4t 36-4l 48,85q 6,11 18,14.5t 23-3.5l 53-31q 10-6 13.5-18.5t-2.5-23.5l-47-83
q 26-30 38-64l 108,0 q 13,0 22.5-9.5t 9.5-22.5l0-64 q0-14 -9.5-23t-22.5-9zM 320,705q-27,0 -45.5-19t-18.5-45.5t 18.5-45t 45.5-18.5t 45.5,18.5t 18.5,45t-18.5,45.5t-45.5,19z" />
<glyph unicode="&#xf306;" d="M 992,384l-102,0 q-14-87 -66-159l 63-64q 9-9 9-22t-9-22l-44-44q-9-9 -22-9t-22,9l-64,63q-72-52 -159-66l0-102 q0-13 -9.5-22.5t-22.5-9.5l-64,0 q-13,0 -22.5,9.5t-9.5,22.5l0,102 q-87,14 -159,66l-64-63q-9-9 -22-9t-22,9l-44,44q-9,9 -9,22t 9,22l 63,64
q-52,72 -66,159l-102,0 q-13,0 -22.5,9.5t-9.5,22.5l0,64 q0,13 9.5,22.5t 22.5,9.5l 102,0 q 14,86 66,159l-63,63q-9,9 -9,22t 9,22l 44,45q 9,9 22,9t 22-9l 64-64q 72,52 159,67l0,102 q0,13 9.5,22.5t 22.5,9.5l 64,0 q 13,0 22.5-9.5t 9.5-22.5l0-102 q 87-15 159-67l 64,64q 9,9 22,9t 22-9
l 44-45q 9-9 9-22t-9-22l-63-63q 52-73 66-159l 102,0 q 13,0 22.5-9.5t 9.5-22.5l0-64 q0-13 -9.5-22.5t-22.5-9.5zM 512,704q-106,0 -181.5-75t-75.5-181t 75.5-181t 181.5-75t 181.5,75t 75.5,181t-75.5,181t-181.5,75z" />
<glyph unicode="&#xf2f4;" d="M 512-64q0,20 -17.5,43t-47,47t-68,52t-81,62.5t-85,74.5t-81,91.5t-68,109t-47,132t-17.5,156.5q0,106 75,181t 181,75t 181-75t 75-181q0,106 75,181t 181,75t 181-75t 75-181q0-82 -17.5-156.5t-47-132t-68-109t-81-91.5t-85-74.5t-81-62.5t-68-52t-47-47
t-17.5-43z" />
<glyph unicode="&#xf2e4;" d="M 943,535l-94-94q-31,56 -81,100l0,419 l 128,0 q 27,0 45.5-19t 18.5-45l0-320 q0-24 -17-41zM 512-64q-87,0 -160.5,43t-116.5,116.5t-43,160.5t 43,160.5t 116.5,116.5t 160.5,43t 160.5-43t 116.5-116.5t 43-160.5t-43-160.5t-116.5-116.5t-160.5-43zM 593,354l-81,168
l-81-168l-188-23l 138-127l-35-182l 166,90l 166-90l-35,182l 138,127zM 640,960l 64,0 l0-372 q-31,17 -64,29l0,343 zM 320,960l 64,0 l0-343 q-34-12 -64-29l0,372 zM 175,441l-94,94q-17,17 -17,41l0,320 q0,26 19,45t 45,19l 128,0 l0-419 q-50-44 -81-100z" />
<glyph unicode="&#xf2e3;" d="M 1024,672q0-58 -35-154.5t-94-186.5q-35-55 -55.5-86.5t-53.5-79t-56-75.5t-53.5-61t-55.5-51t-53.5-30t-55.5-12t-55.5,12.5t-53.5,30.5t-56,51.5t-54,61.5t-56,75.5t-53.5,78.5t-54.5,85q-62,95 -95.5,188.5t-33.5,152.5l0,0 q0,119 84.5,203.5t 203.5,84.5
q 67,0 125-28.5t 99-78.5q 40,50 98.5,78.5t 125.5,28.5q 119,0 203.5-84.5t 84.5-203.5l0,0 z" />
<glyph unicode="&#xf2e2;" d="M 1024,672q0-58 -35-154.5t-94-186.5q-35-55 -55.5-86.5t-53.5-79t-56-75.5t-53.5-61t-55.5-51t-53.5-30t-55.5-12t-55.5,12.5t-53.5,30.5t-56,51.5t-54,61.5t-56,75.5t-53.5,78.5t-54.5,85q-62,95 -95.5,188.5t-33.5,152.5l0,0 q0,119 84.5,203.5t 203.5,84.5
q 67,0 125-28.5t 99-78.5q 40,50 98.5,78.5t 125.5,28.5q 119,0 203.5-84.5t 84.5-203.5l0,0 zM 736,832q-41,0 -85-28.5t-75-67.5q-3-4 -11.5-18t-14-22.5t-16.5-16t-22-7.5l0-608 q 23,0 46,11.5t 41,28.5t 41,48t 39.5,56.5t 43.5,67.5l 45,70q 59,87 96,176t 32,150q0,66 -47,113
t-113,47z" />
<glyph unicode="&#xf2e1;" d="M 1024,672q0-58 -35-154.5t-94-186.5q-35-55 -55.5-86.5t-53.5-79t-56-75.5t-53.5-61t-55.5-51t-53.5-30t-55.5-12t-55.5,12.5t-53.5,30.5t-56,51.5t-54,61.5t-56,75.5t-53.5,78.5t-54.5,85q-62,95 -95.5,188.5t-33.5,152.5l0,0 q0,119 84.5,203.5t 203.5,84.5
q 67,0 125-28.5t 99-78.5q 40,50 98.5,78.5t 125.5,28.5q 119,0 203.5-84.5t 84.5-203.5l0,0 zM 736,832q-41,0 -85-28.5t-75-67.5q-3-4 -11.5-18t-14-22.5t-16.5-16t-22-7.5t-22,7.5t-16.5,15.5t-14.5,22.5t-11,18.5q-31,39 -75,67.5t-85,28.5q-66,0 -113-47t-47-113
q-5-61 32-150t 96-176q 18-27 44.5-69t 43-67.5t 39.5-56.5t 41.5-48t 41.5-29t 46-12t 46,11.5t 41,28.5t 41,48t 39.5,56.5t 43.5,67.5l 45,70q 59,87 96,176t 32,150q0,66 -47,113t-113,47zM0,672zM0,672z" />
<glyph unicode="&#xf2e0;" d="M 906,332q-46-46 -88-78q 7-36 12-71q 8-68 9-113.5t-7.5-77t-25.5-44.5t-48-11.5t-71.5,16.5t-99.5,44q-35,18 -69,39q-32-20 -69-39q-59-29 -99.5-44t-71.5-16.5t-48,11.5t-25.5,44.5t-7.5,77t 9,113.5q 5,34 12,71q-42,32 -88,78q-48,48 -76.5,83.5t-40,65.5
t-4.5,51t 35,39t 72.5,30.5t 114.5,25.5q 49,8 91,12q 17,41 42,87q 32,59 57,95.5t 50,56t 47,19.5t 47-19.5t 50-56t 57-95.5q 25-46 42-87q 42-4 91-12q 70-13 114.5-25.5t 72.5-30.5t 35-39t-4.5-51t-40-65.5t-76.5-83.5z" />
<glyph unicode="&#xf2df;" d="M 906,332q-46-46 -88-78q 7-36 12-71q 8-68 9-113.5t-7.5-77t-25.5-44.5t-48-11.5t-71.5,16.5t-99.5,44q-35,18 -69,39q-32-20 -69-39q-59-29 -99.5-44t-71.5-16.5t-48,11.5t-25.5,44.5t-7.5,77t 9,113.5q 5,35 12,71q-43,32 -88,78q-48,48 -76.5,83.5t-40,65.5
t-4.5,51t 35,39t 72.5,30.5t 114.5,25.5q 49,8 91,12q 17,42 42,87q 32,59 57,95.5t 50,56t 47,19.5t 47-19.5t 50-56t 57-95.5q 25-46 42-87q 42-4 91-12q 70-13 114.5-25.5t 72.5-30.5t 35-39t-4.5-51t-40-65.5t-76.5-83.5zM 756,507q-68,6 -117,5q-10,43 -33,97
q-27,66 -48,97t-40,31l0-578 q 27-19 73-45l 15-9q 21-12 30.5-17.5t 24-12t 19.5-9.5t 13.5-2t 10,2.5t 4.5,10.5t 2.5,15.5t-1,25t-2,31t-4.5,40.5q-2,13 -2,19q-9,79 -27,122q 35,11 106,48q 30,17 49.5,28t 38,23t 25,19.5t 9,16t-6.5,14t-26.5,11t-45.5,9.5t-67,8z" />
<glyph unicode="&#xf2de;" d="M 906,332q-46-46 -88-78q 7-36 12-71q 8-68 9-113.5t-7.5-77t-25.5-44.5t-48-11.5t-71.5,16.5t-99.5,44q-35,18 -69,39q-32-20 -69-39q-59-29 -99.5-44t-71.5-16.5t-48,11.5t-25.5,44.5t-7.5,77t 9,113.5q 5,35 12,71q-43,32 -88,78q-48,48 -76.5,83.5t-40,65.5
t-4.5,51t 35,39t 72.5,30.5t 114.5,25.5q 49,8 91,12q 18,42 42,87q 32,59 57,95.5t 50,56t 47,19.5t 47-19.5t 50-56t 57-95.5q 25-46 42-87q 42-4 91-12q 70-13 114.5-25.5t 72.5-30.5t 35-39t-4.5-51t-40-65.5t-76.5-83.5zM 756,507q-68,6 -117,5q-10,43 -33,97
q-27,66 -47,96.5t-41,30.5t-41-30.5t-47-96.5q-22-54 -32-97q-50,1 -118-5q-39-4 -67-8t-45.5-9.5t-26.5-11t-6.5-14t 9-16t 25-19.5t 38-23t 49.5-28q 72-38 106-49q-18-43 -26-121q-1-6 -3-19q-3-28 -4.5-40.5t-2-31t-1-25t 2.5-15.5t 4.5-10.5
t 10-2.5t 13.5,2t 19.5,9.5t 24,12t 30.5,17.5l 15,9q 46,26 73,45q 27-19 73-45q 5-3 14-9q 22-12 31.5-17.5t 24-12t 19.5-9.5t 13.5-2t 10,2.5t 4.5,10.5t 2.5,15.5t-1,25t-2,31t-4.5,41.5q-2,12 -2,18q-9,79 -27,122q 35,11 106,48q 30,17 49.5,28t 38,23t 25,19.5t 9,16t-6.5,14
t-26.5,11t-45.5,9.5t-67,8z" />
<glyph unicode="&#xf2a5;" d="M 934,366q-27-11 -69.5-9.5t-96.5,20.5q 10,35 10,71q0,110 -80,186q 33,38 65,61t 71,35l 1.5,0 l 0.5,0 l 1,0 l0,0 q 45,14 83-4t 47-57q 11-48 -21-100q 32-10 55.5-32t 30.5-47q 10-38 -18.5-74t-78.5-50l-1,0 zM 522,704q-78,0 -142-43q-32,49 -41,87t-9,85q0,53 28,90.5t 68,37.5
q 25,0 51.5-15.5t 44.5-41.5q 18,26 44.5,41.5t 51.5,15.5q 40,0 68-37.5t 28-90.5q0-47 -9-85t-41-87q-64,43 -142,43zM 266,449q0-37 10-72q-55-19 -97-20.5t-70,9.5q-50,14 -78.5,50t-18.5,74q 7,25 30.5,47t 55.5,32q-32,52 -21,100q 9,39 47,57t 83,4l0,0 l 1,0 l 0.5,0 l 1.5,0 
q 39-12 71-35t 65-61q-80-76 -80-185zM 159,207l0,1 q 1,1 2,3.5t 2,4t 2.5,3.5t 1.5,3q 23,38 51.5,63t 74.5,49q 30-60 86.5-98t 125.5-43q-5-58 -10-97q 1-34 -12-68q 1-8 -8-18q 3,4 7,16q-5-11 -7-16q-25-46 -66-65t-74,1q-22,14 -36.5,44t-15.5,64
q-28-18 -61.5-20.5t-55.5,10.5q-28,15 -28.5,68t 20.5,94zM 330,448.5q0,79.5 56,135.5t 135.5,56t 136-56t 56.5-135.5t-56.5-136t-136-56.5t-135.5,56.5t-56,136zM 751,334q 46-24 74.5-49t 50.5-63q 1-1 2.5-3t 2.5-3.5t 2-4.5t 2-3l0-1 l 1-1q 21-40 20.5-93.5
t-28.5-68.5q-22-13 -55.5-10.5t-61.5,20.5q-1-34 -15.5-64t-36.5-44q-33-20 -74-1t-66,66q-1,3 -7,15q 4-12 7-15q-9,9 -8,17q-13,34 -12,68q-5,39 -10,97q 69,5 125.5,43t 86.5,98z" />
<glyph unicode="&#xf29e;" d="M 512-64q-139,0 -257,68.5t-186.5,186.5t-68.5,257t 68.5,257t 186.5,186.5t 257,68.5t 257-68.5t 186.5-186.5t 68.5-257t-68.5-257t-186.5-186.5t-257-68.5zM 512,896q-91,0 -174-35.5t-143-95.5t-95.5-143t-35.5-174t 35.5-174t 95.5-143t 143-95.5t 174-35.5
t 174,35.5t 143,95.5t 95.5,143t 35.5,174t-35.5,174t-95.5,143t-143,95.5t-174,35.5zM 882,347l-104,26l-182,75l 187,77l 99,25q 14-51 14-102q0-50 -14-101zM 571,507l 78,187l 53,88q 91-52 143-144l-91-55zM 512,532l-77,186l-24,100q 51,14 101,14t 101-14l-25-104zM 271,583
l-92,55q 52,92 143,144l 54-88l 77-187zM 429,448l-183-75l-104-26q-14,51 -14,101t 14,102l 100-25zM 453,389l-75-182l-56-92q-91,52 -143,143l 87,54zM 512,364l 76-182l 25-104q-51-14 -101-14t-101,14l 24,100zM 758,312l 88-54q-52-91 -143-143l-56,92l-76,182z" />
<glyph unicode="&#xf29d;" d="M 1004,466.5q-26-49.5 -66-71t-70-2.5t-32.5,67.5t 23.5,98t 65.5,71t 69.5,2.5t 33-67.5t-23-98zM 515,0q-58,0 -86.5,0.5t-73.5,4t-67.5,11.5t-47.5,22t-35,36.5t-10,53.5q0,42 16,94t 46,102.5t 68.5,93t 88.5,68.5t 101,26t 101-26t 88.5-68.5t 68.5-93t 46-102.5t 16-94
q0-31 -10-53.5t-35-36.5t-47.5-22t-67.5-11.5t-73.5-4t-86.5-0.5zM 639,578.5q-37,10.5 -52.5,59.5t-0.5,108t 51.5,93t 73.5,23.5t 52.5-59.5t 1-108t-51.5-93t-74-23.5zM 391,578.5q-37-10.5 -73.5,23.5t-51.5,93t 0.5,108t 52.5,59.5t 73.5-23.5t 51.5-93t-0.5-108
t-52.5-59.5zM 26,466.5q-26,49.5 -23,98t 33,67.5t 69.5-2.5t 65.5-71t 23.5-98t-32.5-67.5t-70,2.5t-66,71z" />
<glyph unicode="&#xf28f;" d="M 960,704l-1,0 l-1,0 l 2-444l0-1.5 l0-2.5 q0-26 -19-45t-45-19l-768,0 q-27,0 -45.5,19t-18.5,45l0,2.5 l0,1.5 l 2,444l-1,0 l-1,0 q-27,0 -45.5,18.5t-18.5,45.5t 18.5,45.5t 45,18.5t 45.5-18.5t 19-45.5q0-33 -27-52l 219-310l 166,368q-17,7 -27.5,23t-10.5,35q0,27 18.5,45.5t 45,18.5
t 45.5-18.5t 19-45.5q0-19 -10.5-35t-27.5-23l 166-368l 219,310q-27,19 -27,52q0,27 18.5,45.5t 45,18.5t 45.5-18.5t 19-45.5t-19-45.5t-45-18.5zM 64,128l 447,0 l 1,0 l 1,0 l 447,0 q 26,0 45-18.5t 19-45t-19-45.5t-45-19l-896,0 q-26,0 -45,19t-19,45.5t 18.5,45t 45.5,18.5z" />
<glyph unicode="&#xf286;" d="M 543.5-64q-95.5,0 -176.5,46.5t-128,126.5t-47,175l0,420 q0,106 75,181t 181,75t 181-75t 75-181l0-352 q0-66 -47-113t-113-47t-113,47t-47,113l0,160 q0,27 18.5,45.5t 45,18.5t 45.5-18.5t 19-45.5l0-160 q0-13 9.5-22.5t 22.5-9.5t 22.5,9.5t 9.5,22.5l0,352 q0,128 -128,128
t-128-128l0-410 q0-95 65.5-162.5t 158.5-67.5t 158.5,67.5t 65.5,162.5l0,282 q0,27 18.5,45.5t 45,18.5t 45.5-19t 19-45l0-292 q0-95 -47.5-175t-128.5-126.5t-176.5-46.5z" />
<glyph unicode="&#xf284;" d="M 536,128q 8,7 160,157t 178,177q 19,18 45.5,18t 45.5-18.5t 19-45.5t-19-45q-22-22 -173-174t-159-159q-68-67 -159.5-91t-183,1t-160.5,93t-94,159t-1,181.5t 92,158.5l 348,344q 76,76 184,76t 184.5-75.5t 76.5-182.5t-76-182l-286-283q-47-45 -115-45
t-115.5,45.5t-47.5,108t 47,108.5q 17,17 115,117.5t 112,114.5q 19,19 45.5,19t 45-19t 18.5-45.5t-18-45.5q-11-10 -112.5-113t-111.5-113q-9-9 -9-22t 9.5-22t 22.5-9t 23,9l 285,286q 92,91 -0.5,182.5t-184.5-0.5l-351-345q-69-69 -68.5-161.5t 68-159t 159.5-67
t 161,67.5z" />
<glyph unicode="&#xf285;" d="M 943,593q-3-3 -6.5-9.5t-8.5-7.5l-352-352q-32-32 -64-32l-128,0 q-27,0 -45.5,19t-18.5,45l0,128 q0,10 5,20t 10,15t 15,14t 12,12l 179,179q 17,17 41,17t 41-17t 17-41t-17-41l-175-175l0-47 l 46,0 l 320,320l-175,175l-447-448l0-303 l 302,0 l 367,367q 17,17 41,17t 40.5-17
t 16.5-40.5t-16-40.5l-371-371q-5-5 -14-15.5t-14-14.5t-13.5-8.5t-18.5-4.5l-384,0 q-27,0 -45.5,19t-18.5,45l0,384 q0,10 6,20.5t 11.5,17t 15,14.5t 10.5,9l 469,483l 16,16q 19,19 47,16q 29,3 48-16l 17-16l 224-224q 7-9 15-16q 18-19 15-48q 3-28 -15-47z" />
<glyph unicode="&#xf1f4;" d="M 896,256l0-64 q0-106 -75-181t-181-75l-448,0 q-27,0 -45.5,19t-18.5,45l0,896 q0,26 18.5,45t 45.5,19l 448,0 q 106,0 181-75t 75-181l0-32 q0-56 -23.5-106t-63.5-86q 38-34 62.5-99t 24.5-125zM 608,768l-256,0 q-13,0 -22.5-9.5t-9.5-22.5l0-128 q0-13 9.5-22.5t 22.5-9.5l 256,0 
q 39,0 67.5,28t 28.5,68t-28.5,68t-67.5,28zM 576,384l-224,0 q-13,0 -22.5-9.5t-9.5-22.5l0-192 q0-13 9.5-22.5t 22.5-9.5l 224,0 q 53,0 90.5,37.5t 37.5,90.5t-37.5,90.5t-90.5,37.5z" />
<glyph unicode="&#xf1ad;" d="M 1001.5-41.5q-22.5-22.5 -54.5-22.5t-54,23l-56,55l-165,50q-51,2 -87,38l-252,251l-43-43q-22-22 -54-22t-54.5,22.5t-22.5,54t 23,54.5l 5,5l-115,115q-72,72 -72,174t 72,174t 174,72t 174-72l 115-115l 5,5q 22,23 54,23t 54.5-22.5t 22.5-54.5t-22-55l-42-42
l 251-251q 37-36 37-88l 49-162l 58-58q 22-22 22-54t-22.5-54.5zM 745,323l-220,220l-110-109l 220-221q 23-23 55-23t 54.5,23t 22.5,55t-22,55z" />
<glyph unicode="&#xf1ac;" d="M 832,576l 85,0 l 107-576l-256,256l0,64 q0,53 -37.5,90.5t-90.5,37.5t-90.5-37.5t-37.5-90.5t 37.5-90.5t 90.5-37.5l 64,0 l 256-256l-576,107l0,85 q0,176 -79,324q-55-8 -108,9t-93,58l-34,33q-70,70 -70,169t 70,169t 169.5,70t 169.5-70l 33-33q 41-41 58-94.5t 9-108.5
q 148-78 323-78z" />
<glyph unicode="&#xf148;" d="M 896,0l0-32 q0-13 -9.5-22.5t-22.5-9.5l-64,0 q-13,0 -22.5,9.5t-9.5,22.5l0,32 l-512,0 l0-32 q0-13 -9.5-22.5t-22.5-9.5l-64,0 q-13,0 -22.5,9.5t-9.5,22.5l0,32 q-53,0 -90.5,37.5t-37.5,90.5l0,64 q0,70 36.5,144.5t 97,125t 122.5,50.5q 26,0 45,18.5t 19,45.5l0,64 q0,26 18.5,45
t 45.5,19t 45.5-19t 18.5-45l 128,0 q0,26 18.5,45t 45.5,19t 45.5-19t 18.5-45l0-64 q0-27 18.5-45.5t 45.5-18.5q 62,0 122.5-50.5t 97-125t 36.5-144.5l0-64 q0-53 -37.5-90.5t-90.5-37.5zM 512,448q-80,0 -136-56.5t-56-136t 56-135.5t 136-56t 136,56t 56,136t-56,136
t-136,56zM 512,128q-53,0 -90.5,37.5t-37.5,90.5t 37.5,90.5t 90.5,37.5t 90.5-37.5t 37.5-90.5t-37.5-90.5t-90.5-37.5zM 896,576l-32.5,0 t-28.5,1t-27.5,3t-20,5.5t-15,9t-4.5,13.5l0,103 q-25,22 -100,39.5t-156,17.5t-156-17.5t-100-39.5l0-103 q0-8 -4.5-13.5t-15-9
t-20-5.5t-27.5-3t-28.5-1l-32.5,0 l-35,0 t-29,1t-27,3t-19,5.5t-14,9t-4,13.5l0,87 q0,62 69.5,108.5t 184.5,69.5t 258,23t 258-23t 184.5-69.5t 69.5-108.5l0-87 q0-8 -4-13.5t-14-9t-19-5.5t-27-3t-29-1l-35,0 z" />
<glyph unicode="&#xf13b;" d="M 1025,497l-202-224l 29-297q-3-20 -19-31.5t-36-7.5l-279,119l-279-119q-20-4 -36,7.5t-19,31.5l 29,297l-202,224q-9,17 -2.5,36t 23.5,28l 298,64l 154,258q 14,14 34,14t 34-14l 154-258l 298-64q 17-9 23.5-28t-2.5-36zM 851,502l-204,45l-106,180q-10,10 -23.5,10
t-23.5-10l-106-180l-205-45q-12-7 -16-20t 2-25l 141-160l-16-200q 2-15 10.5-25t 20.5-8l 192,84l 192-84q 13-2 21.5,8t 10.5,25l-16,201l 141,159q 6,12 1.5,25t-16.5,20z" />
<glyph unicode="&#xf132;" d="M 805,236l-293-300l-294,300q-119,122 -168.5,231t-49.5,237q0,106 75,181t 181,75t 181-75t 75-181q0,106 75,181t 181,75t 181-75t 75-181q0-127 -49.5-236.5t-169.5-231.5zM 896,704q0,53 -37.5,90.5t-90.5,37.5t-90.5-37.5t-37.5-90.5l0-1 q0-17 -40-40t-88-23
q-50,0 -89,22t-39,42l0,0 q0,53 -37.5,90.5t-90.5,37.5t-90.5-37.5t-37.5-90.5l0-1 q0-106 36-190.5t 127-190.5l 221-226l 220,226q 92,107 128,191t 36,191l0,0 z" />
<glyph unicode="&#xf131;" d="M 805,236l-293-300l-294,300q-119,122 -168.5,231t-49.5,237q0,106 75,181t 181,75t 181-75t 75-181q0,106 75,181t 181,75t 181-75t 75-181q0-127 -49.5-236.5t-169.5-231.5z" />
<glyph unicode="&#xf0af;" d="M 485-64q-95,0 -176,34t-128.5,93t-47.5,129t 47.5,128.5t 128.5,93t 176,34.5q 33,0 73-5t 83-15t 71.5-30t 28.5-46q0-40 -24.5-68t-71.5-28q-19,0 -44,16t-55,32t-61,16q-71,0 -115.5-30t-44.5-98q0-17 9.5-37.5t 27-41.5t 50-35t 73.5-14q 59,0 159,54t 161,138
q 3,4 12.5,17t 12,16.5t 11.5,12t 16,11t 18.5,5t 25.5,2.5q 64,0 64-96q0-22 -23-57.5t-67.5-75t-101-74.5t-133.5-58t-155-23zM 773,512q-7-20 -22.5-24t-28.5,4.5t-13,19.5l0,320 q0,26 27.5,47.5t 53,14.5t 39-29t 6.5-46q-2-6 -10.5-64t-22-129t-29.5-114zM 549,512
q-21,0 -36,51.5t-20,131t-6.5,122.5t-1.5,79q0,26 19,45t 45.5,19t 45-19t 18.5-45q0-1 0.5-22t 0.5-41t-0.5-52t-2-60t-4.5-60t-8-57.5t-11.5-47t-16-33t-22.5-11.5zM 325,512q-15,41 -29,112t-22.5,130t-9.5,65q-7,24 6.5,46t 39,29t 52.5-14.5t 27-47.5l0-320 
q0-13 -12-22t-27.5-4.5t-24.5,26.5zM 229,448q-17,0 -37,19t-38,50t-32.5,58.5t-27.5,57.5t-16,34q-12,24 -5.5,51t 28,40.5t 45.5,6.5t 37-31q 17-32 42.5-159t 3.5-127z" />
<glyph unicode="&#xf0ae;" d="M 512-64q-139,0 -257,68.5t-186.5,186.5t-68.5,257t 68.5,257t 186.5,186.5t 257,68.5t 257-68.5t 186.5-186.5t 68.5-257t-68.5-257t-186.5-186.5t-257-68.5zM 376,556.5q-12,39.5 -37.5,63.5t-48.5,19t-31-37t 4.5-71t 38-63t 48.5-19t 30.5,36.5t-4.5,71zM 696,620.5
q-12,39.5 -37.5,63.5t-48.5,19t-31-36.5t 4.5-71t 38-63.5t 48.5-19t 30.5,36.5t-4.5,71zM 566,212q-43-7 -88-12t-90.5-6.5t-73.5-2t-71.5,0t-50.5,0.5q 18-30 83-48.5t 158.5-18t 181.5,23.5q 66,17 121,47t 89,63t 52.5,65.5t 18.5,59.5q-34-28 -57-45t-69-46.5
t-97.5-50t-106.5-30.5z" />
<glyph unicode="&#xf092;" d="M 960-64l-896,0 q-26,0 -45,18.5t-19,45.5l0,640 q0,26 19,45t 45,19l 192,0 q0,26 19,45t 45,19l 64,0 l0,128 q0,26 19,45t 45,19l 128,0 q 27,0 45.5-19t 18.5-45l0-128 l 64,0 q 27,0 45.5-19t 18.5-45l 192,0 q 27,0 45.5-19t 18.5-45l0-640 q0-27 -18.5-45.5t-45.5-18.5zM 288,576q-71,0 -115.5-32.5
t-44.5-95.5q0-168 96-211l0-19 q-69-12 -114-45t-46-75q0-12 21.5-19.5t 63-10.5t 68.5-3.5t 71-0.5t 71,0.5t 68.5,3.5t 63,10.5t 21.5,19.5q-1,42 -45.5,75t-114.5,45l0,18 q 96,39 96,212l0,2 l0,1 l-155,125l-2.5,0 l-2.5,0 zM 696,704l-120,0 l0,160 q0,13 -9.5,22.5t-22.5,9.5l-64,0 
q-13,0 -22.5-9.5t-9.5-22.5l0-160 l-121,0 q-8-10 -8-23t 8-23l 185-146l 184,146q 8,10 8,23t-8,23zM 928,512l-256,0 q-13,0 -22.5-9.5t-9.5-22.5t 9.5-22.5t 22.5-9.5l 256,0 q 13,0 22.5,9.5t 9.5,22.5t-9.5,22.5t-22.5,9.5zM 640,288q0-13 9.5-22.5t 22.5-9.5l 128,0 q 13,0 22.5,9.5
t 9.5,22.5t-9.5,22.5t-22.5,9.5l-128,0 q-13,0 -22.5-9.5t-9.5-22.5zM 928,128l-256,0 q-13,0 -22.5-9.5t-9.5-22.5t 9.5-22.5t 22.5-9.5l 256,0 q 13,0 22.5,9.5t 9.5,22.5t-9.5,22.5t-22.5,9.5z" />
<glyph unicode="&#xf091;" d="M 1017,226l-59,59q 2,19 2,35q0,110 -67.5,196t-171.5,113l 296,296q 7-14 7-29l0-640 q0-15 -7-30zM 640,640q-106,0 -192-65l-385,385l 1,0 l 896,0 l 1,0 l-320-320l-1,0 zM 7,226q-7,15 -7,30l0,640 q0,15 7,29l 350-349zM 320,320q0-67 27-128l-283,0 l-1,0 l 325,324q-68-87 -68-196z
M 640,576q 106,0 181-75t 75-181q0-75 -41-138l 161-160q 8-8 8-19.5t-8-19.5l-39-39q-8-8 -19.5-8t-19.5,8l-160,160q-64-40 -138-40q-106,0 -181,75t-75,181t 75,181t 181,75zM 640,192q 53,0 90.5,37.5t 37.5,90.5t-37.5,90.5t-90.5,37.5t-90.5-37.5t-37.5-90.5
t 37.5-90.5t 90.5-37.5z" />
<glyph unicode="&#xf083;" d="M 942,192q-24,0 -49.5,18t-42.5,47q 9-1 14-1q 40,0 68,19t 28,45q0,25 -25,43t-62,21q-41-28 -139.5-46t-221.5-18q-159,0 -271.5,28.5t-112.5,67.5q0,30 66,54q 14-36 114-61t 236-25q 113,0 203,18t 128,46q 12-9 17-18q 26,18 50,18q 34,0 58-37.5t 24-90.5
t-24-90.5t-58-37.5zM 576,641q0-33 10-59t 22-41t 22-39.5t 10-53.5q-5,3 -13.5,8t-31,23.5t-39,39t-30.5,53.5t-14,69q0,33 31.5,69.5t 74.5,62t 85,42.5t 65,16q-18,0 -63.5-31t-87-78t-41.5-81zM 384,608q0-35 16-75t 32-63l 16-23q-48,0 -88,51t-40,110
q0,26 20,52.5t 48,48t 56,40.5t 48,37.5t 20,32.5q0,28 -3,49t-16.5,48t-38.5,43q 62-7 92-44.5t 30-95.5q0-32 -20-57t-48-41t-56-31t-48-35.5t-20-46.5zM 512,128q 147,0 221,32q 35-15 35-32q0-26 -75-45t-181-19t-181,19t-75,45q0,17 35,32q 74-32 221-32z
M 192,256q0,17 43,32q 93-32 277-32t 277,32q 43-15 43-32q0-26 -94-45t-226.5-19t-226,19t-93.5,45zM 128,128q0-35 51.5-64.5t 140-46.5t 192.5-17t 192.5,17t 140,46.5t 51.5,64.5q0,11 -6,22q 134-36 134-86q0-35 -68.5-64.5t-186.5-46.5t-257-17t-257,17
t-186.5,46.5t-68.5,64.5q0,50 134,86q-6-11 -6-22z" />
<glyph unicode="&#xf067;" d="M 192-64l 1,1q-88,4 -138,54q-50,49 -54,137l-1,0 l0,320 l 1,0 q0,72 46.5,162t 129.5,173t 173,129.5t 162,46.5l0,1 l 320,0 l0-1 q 88-4 137-54q 50-50 54-138l 1,1l0-832 l-832,0 zM 960,0l-224,224l-288-224l 512,0 zM 675,247l-355,137l-54-376q 95,19 202.5,81t 206.5,158zM 64,96q 2-5 8.5-19.5
t 12.5-27t 11-17.5q 29-29 53-33.5t 77,3.5q-158,323 -162,332l0-238 zM 548.5,868.5q-47.5,47.5 -148,14t-195-128t-128-195t 14-148t 148-14t 195,128t 128,195t-14,148zM 713,285q 95,99 157,206.5t 81,202.5l-375-54zM 926,864q-5,5 -17,11t-27,12.5t-19,8.5l-237,0 l 330-160
q 8,52 3.5,76t-33.5,52z" />
<glyph unicode="&#xf035;" d="M 969,832l-76,0 l-122-595q-5-19 -21.5-32t-34.5-13l-547,0 q-19,0 -35.5,13t-21.5,32l-98,377q-10,36 3,63t 40,27l 709,123l 18,89q 5,18 21.5,31t 34.5,13l 130,0 q 27,0 45.5-18.5t 18.5-45t-19-45.5t-45-19zM 297,128q 40,0 68-28t 28-68t-28-68t-68-28t-68,28t-28,68t 28,68
t 68,28zM 617,128q 40,0 68-28t 28-68t-28-68t-68-28t-68,28t-28,68t 28,68t 68,28z" />
<glyph unicode="&#xf3a8;" d="M 896,320l-82,0 l 45-46q 37-36 37-86.5t-36.5-87t-87-36.5t-87.5,36l-45,46l0-82 q0-53 -37.5-90.5t-90.5-37.5t-90.5,37.5t-37.5,90.5l0,83 l-46-47q-37-36 -87.5-36t-87,36.5t-36.5,87t 37,86.5l 45,46l-81,0 q-53,0 -90.5,37.5t-37.5,90.5t 37.5,90.5t 90.5,37.5l 82,0 l-46,46
q-36,36 -36,87t 36,87t 87,36t 87-36l 46-46l0,82 q0,53 37.5,90.5t 90.5,37.5t 90.5-37.5t 37.5-90.5l0-81 l 46,46q 36,36 86.5,36t 87-36.5t 36.5-87t-36-87.5l-47-46l 83,0 q 53,0 90.5-37.5t 37.5-90.5t-37.5-90.5t-90.5-37.5zM 512,640q-80,0 -136-56t-56-136t 56.5-136
t 136-56t 135.5,56.5t 56,136t-56,135.5t-136,56zM 512,320q-53,0 -90.5,37.5t-37.5,90.5t 37.5,90.5t 90.5,37.5t 90.5-37.5t 37.5-90.5t-37.5-90.5t-90.5-37.5z" />
<glyph unicode="&#xf38f;" d="M 1004.5,403.5q-19.5-19.5 -47-19.5t-46.5,19l-15,15l0-418 q0-27 -18.5-45.5t-45.5-18.5l-128,0 l0,256 q0,79 -56,135t-135.5,56t-135.5-56t-56-135l0-256 l-129,0 q-27,0 -45.5,18.5t-18.5,45.5l0,418 l-15-15q-19-19 -46.5-19t-47,19.5t-19.5,47t 19,46.5l 444,443
q 20,20 49,19q 29,1 49-19l 444-443q 19-19 19-46.5t-19.5-47z" />
<glyph unicode="&#xf0ac;" d="M 438.5,886.857q 119.429,0 220.286-58.857t 159.714-159.714t 58.857-220.286t-58.857-220.286t-159.714-159.714t-220.286-58.857t-220.286,58.857t-159.714,159.714t-58.857,220.286t 58.857,220.286t 159.714,159.714t 220.286,58.857zM 595.072,589.143q-1.143-0.571 -5.429-5.429t-7.714-5.429q 1.143,0 2.571,2.857t 2.857,6.286t 2,4q 3.429,4 12.571,8.571q 8,3.429 29.714,6.857q 19.429,4.571 29.143-6.286 q-1.143,1.143 5.429,7.429t 8.286,6.857q 1.714,1.143 8.571,2.571t 8.571,4.286l 1.143,12.571q-6.857-0.571 -10,4t-3.714,12q0-1.143 -3.429-4.571q0,4 -2.571,4.571t-6.571-0.571t-5.143-0.571q-5.714,1.714 -8.571,4.286t-4.571,9.429t-2.286,8.571q-1.143,2.857 -5.429,6t-5.429,6q-0.571,1.143 -1.429,3.143t-1.714,3.714t-2.286,3.143t-3.143,1.429t-4-2.857t-4.286-5.714t-2.571-2.857q-1.714,1.143 -3.429,0.857t-2.571-0.571t-2.571-1.714t-2.857-2 q-1.714-1.143 -4.857-1.714t-4.857-1.143q 8.571,2.857 -0.571,6.286q-5.714,2.286 -9.143,1.714q 5.143,2.286 4.286,6.857t-4.857,8l 2.857,0 q-0.571,2.286 -4.857,4.857t-10,4.857t-7.429,3.429q-4.571,2.857 -19.429,5.429t-18.857,0.286q-2.857-3.429 -2.571-6t 2.286-8t 2-7.143q 0.571-3.429 -3.143-7.429t-3.714-6.857q0-4 8-8.857t 5.714-12.286q-1.714-4.571 -9.143-9.143t-9.143-6.857q-2.857-4.571 -0.857-10.571t 6-9.429 q 1.143-1.143 0.857-2.286t-2-2.571t-3.143-2.286t-3.714-2l-1.714-1.143q-6.286-2.857 -11.714,3.429t-7.714,14.857q-4,14.286 -9.143,17.143q-13.143,4.571 -16.571-0.571q-2.857,7.429 -23.429,14.857q-14.286,5.143 -33.143,2.286q 3.429,0.571 0,8.571q-4,8.571 -10.857,6.857q 1.714,3.429 2.286,10t 0.571,7.714q 1.714,7.429 6.857,13.143q 0.571,0.571 4,4.857t 5.429,7.714t 0.286,3.429q 20-2.286 28.571,6.286q 2.857,2.857 6.571,9.714t 6,9.714q 5.143,3.429 8,3.143t 8.286-3.143 t 8.286-2.857q 8-0.571 8.857,6.286t-4.286,11.429q 6.857-0.571 1.714,9.714q-2.857,4 -4.571,5.143q-6.857,2.286 -15.429-2.857q-4.571-2.286 1.143-4.571q-0.571,0.571 -5.429-6t-9.429-10t-9.143,2.857q-0.571,0.571 -3.143,7.714t-5.429,7.714q-4.571,0 -9.143-8.571q 1.714,4.571 -6.286,8.571t-13.714,4.571q 10.857,6.857 -4.571,15.429q-4,2.286 -11.714,2.857t-11.143-2.286q-2.857-4 -3.143-6.571t 2.857-4.571t 6-3.143t 6.571-2.286t 4.857-1.714 q 8-5.714 4.571-8q-1.143-0.571 -4.857-2t-6.571-2.571t-3.429-2.286q-1.714-2.286 0-8t-1.143-8q-2.857,2.857 -5.143,10t-4,9.429q 4-5.143 -14.286-3.429l-5.714,0.571q-2.286,0 -9.143-1.143t-11.714-0.571t-7.714,4.571q-2.286,4.571 0,11.429q 0.571,2.286 2.286,1.143q-2.286,1.714 -6.286,5.429t-5.714,4.857q-26.286-8.571 -53.714-23.429q 3.429-0.571 6.857,0.571q 2.857,1.143 7.429,3.714t 5.714,3.143q 19.429,8 24,4l 2.857,2.857q 8-9.143 11.429-14.286 q-4,2.286 -17.143,0.571q-11.429-3.429 -12.571-6.857q 4-6.857 2.857-10.286q-2.286,1.714 -6.571,5.714t-8.286,6.286t-8.571,2.857q-9.143,0 -12.571-0.571q-83.429-45.714 -134.286-126.857q 4-4 6.857-4.571q 2.286-0.571 2.857-5.143t 1.429-6.286t 6.571,1.714q 5.143-4.571 1.714-10.857q 0.571,0.571 25.143-15.429q 10.857-9.714 12-12q 1.714-6.286 -5.714-10.286q-0.571,1.143 -5.143,5.143t-5.143,2.286q-1.714-2.857 0.286-10.571t 6-7.143q-4,0 -5.429-9.143t-1.429-20.286 t-0.571-13.429l 1.143-0.571q-1.714-6.857 3.143-19.714t 12.286-11.143q-7.429-1.714 11.429-24.571q 3.429-4.571 4.571-5.143q 1.714-1.143 6.857-4.286t 8.571-5.714t 5.714-6q 2.286-2.857 5.714-12.857t 8-13.429q-1.143-3.429 5.429-11.429t 6-13.143q-0.571,0 -1.429-0.571t-1.429-0.571q 1.714-4 8.857-8t 8.857-7.429q 0.571-1.714 1.143-5.714t 1.714-6.286t 4.571-1.143q 1.143,11.429 -13.714,35.429q-8.571,14.286 -9.714,16.571q-1.714,2.857 -3.143,8.857 t-2.571,8.286q 1.143,0 3.429-0.857t 4.857-2t 4.286-2.286t 1.143-1.714q-1.714-4 1.143-10t 6.857-10.571t 9.714-10.857t 6.857-7.429q 3.429-3.429 8-11.143t0-7.714q 5.143,0 11.429-5.714t 9.714-11.429q 2.857-4.571 4.571-14.857t 2.857-13.714q 1.143-4 4.857-7.714t 7.143-5.429l 9.143-4.571t 7.429-4q 2.857-1.143 10.571-6t 12.286-6.571q 5.714-2.286 9.143-2.286t 8.286,1.429t 7.714,2q 8.571,1.143 16.571-8.571t 12-12 q 20.571-10.857 31.429-6.286q-1.143-0.571 0.286-4.286t 4.571-8.857t 5.143-8.286t 3.143-4.857q 2.857-3.429 10.286-8.571t 10.286-8.571q 3.429,2.286 4,5.143q-1.714-4.571 4-11.429t 10.286-5.714q 8,1.714 8,18.286q-17.714-8.571 -28,10.286q0,0.571 -1.429,3.143t-2.286,4.857t-1.429,4.857t0,4.286t 2.857,1.714q 5.143,0 5.714,2t-1.143,7.143t-2.286,7.429q-0.571,4.571 -6.286,11.429t-6.857,8.571q-2.857-5.143 -9.143-4.571t-9.143,5.143q0-0.571 -0.857-3.143t-0.857-3.714 q-7.429,0 -8.571,0.571q 0.571,1.714 1.429,10t 2,12.857q 0.571,2.286 3.143,6.857t 4.286,8.286t 2.286,7.143t-2.571,5.429t-10,1.429q-10.857-0.571 -14.857-11.429q-0.571-1.714 -1.714-6t-2.857-6.571t-5.143-4q-4-1.714 -13.714-1.143t-13.714,2.857q-7.429,4.571 -12.857,16.571t-5.429,21.143q0,5.714 1.429,15.143t 1.714,14.286t-3.143,14q 1.714,1.143 5.143,5.429t 5.714,6q 1.143,0.571 2.571,0.857t 2.571,0t 2.286,0.857t 1.714,3.429q-0.571,0.571 -2.286,1.714 q-1.714,1.714 -2.286,1.714q 4-1.714 16.286,0.857t 15.714-0.857q 8.571-6.286 12.571,1.143q0,0.571 -1.429,5.429t-0.286,7.714q 2.857-15.429 16.571-5.143q 1.714-1.714 8.857-2.857t 10-2.857q 1.714-1.143 4-3.143t 3.143-2.571t 2.857,0.286t 4.857,3.714q 5.714-8 6.857-13.714q 6.286-22.857 10.857-25.143q 4-1.714 6.286-1.143t 2.571,5.429t0,8t-0.857,7.143l-0.571,4.571l0,10.286 l-0.571,4.571q-8.571,1.714 -10.571,6.857t 0.857,10.571t 8.571,10.571q 0.571,0.571 4.571,2 t 8.857,3.714t 7.143,4.571q 12,10.857 8.571,20q 4,0 6.286,5.143q-0.571,0 -2.857,1.714t-4.286,2.857t-2.571,1.143q 5.143,2.857 1.143,9.143q 2.857,1.714 4.286,6.286t 4.286,5.714q 5.143-6.857 12-1.143q 4,4.571 0.571,9.143q 2.857,4 11.714,6t 10.571,5.429q 4-1.143 4.571,1.143t 0.571,6.857t 1.714,6.857q 2.286,2.857 8.571,5.143t 7.429,2.857l 9.714,6.286q 1.714,2.286 0,2.286q 10.286-1.143 17.714,6.286q 5.714,6.286 -3.429,11.429q 1.714,3.429 -1.714,5.429t-8.571,3.143q 1.714,0.571 6.571,0.286t 6,0.857 q 8.571,5.714 -4,9.143q-9.714,2.857 -24.571-6.857zM 501.929,88q 117.714,20.571 200.571,108q-1.714,1.714 -7.143,2.571t-7.143,2q-10.286,4 -13.714,4.571q 0.571,4 -1.429,7.429t-4.571,5.143t-7.143,4.571t-6.286,4q-1.143,1.143 -4,3.429t-4,3.143t-4.286,2.571t-4.857,1.143t-5.714-0.571l-1.714-0.571q-1.714-0.571 -3.143-1.429t-3.143-1.714t-2.286-1.714t0-1.429q-12,9.714 -20.571,12.571q-2.857,0.571 -6.286,3.143t-6,4t-5.714,0.857t-6.571-4 q-2.857-2.857 -3.429-8.571t-1.143-7.429q-4,2.857 0,10t 1.143,10.571q-1.714,3.429 -6,2.571t-6.857-2.571t-6.571-4.857t-5.143-3.714t-4.857-3.143t-4.857-4.286q-1.714-2.286 -3.429-6.857t-2.857-6.286q-1.143,2.286 -6.571,3.714t-5.429,3.143q 1.143-5.714 2.286-20t 2.857-21.714q 4-17.714 -6.857-27.429q-15.429-14.286 -16.571-22.857q-2.286-12.571 6.857-14.857q0-4 -4.571-11.714t-4-12.286q0-3.429 1.143-9.143z" horiz-adv-x="877" />
<glyph unicode="&#xf064;" d="M 1024,594.286q0-14.857 -10.857-25.714l-292.571-292.571q-10.857-10.857 -25.714-10.857t-25.714,10.857t-10.857,25.714l0,146.286 l-128,0 q-56,0 -100.286-3.429t-88-12.286t-76-24.286t-60.286-39.714t-45.714-57.714t-27.714-79.143t-10-103.429q0-31.429 2.857-70.286q0-3.429 1.429-13.429t 1.429-15.143q0-8.571 -4.857-14.286t-13.429-5.714q-9.143,0 -16,9.714q-4,5.143 -7.429,12.571 t-7.714,17.143t-6,13.714q-72.571,162.857 -72.571,257.714q0,113.714 30.286,190.286q 92.571,230.286 500,230.286l 128,0 l0,146.286 q0,14.857 10.857,25.714t 25.714,10.857t 25.714-10.857l 292.571-292.571q 10.857-10.857 10.857-25.714z" />
<glyph unicode="&#xf032;" d="M 316.857,90.857q 43.429-18.286 80-18.286q 74.857,0 123.429,23.429t 69.714,64.571q 21.714,40 21.714,103.429q0,65.143 -23.429,102.857q-33.143,53.714 -80.571,72q-45.714,18.286 -141.143,18.286q-42.286,0 -57.714-5.714l0-82.286 l-0.571-98.857l 1.714-154.286q0-8.571 6.857-25.143zM 308.857,517.143q 24.571-4 62.286-4q 100,0 150.857,37.143t 50.857,128q0,64 -48.571,106.857q-48,42.857 -145.714,42.857q-29.714,0 -74.286-7.429q0-25.143 1.143-44 q 4-69.714 3.429-159.429l-0.571-56q0-24.571 0.571-44zM-0.286,9.143l 1.143,53.714q 25.714,5.143 38.857,6.857q 44,6.857 70.286,17.714q 9.714,15.429 12,29.143q 5.143,37.714 5.143,110.857l-1.143,284q-2.857,146.286 -5.143,230.857q-0.571,49.714 -6.286,62.286q-0.571,2.286 -6.857,6.857q-10.286,6.857 -39.429,8.571q-17.143,1.143 -65.143,7.429l-2.286,47.429l 148.571,3.429l 217.143,7.429l 25.714,0.571q 2.857,0 8,0.286t 8,0.286q 0.571,0 12.286-0.286t 23.143-0.286l 42.286,0 q 50.286,0 109.143-15.429 q 24.571-7.429 54.857-22.286q 32.571-16.571 58.286-43.429q 25.143-26.857 37.143-59.429t 12-69.714q0-40 -18.286-73.143t-54.286-60q-14.857-11.429 -85.714-44q 101.143-23.429 152.571-83.429q 52.571-60.571 52.571-134.857q0-43.429 -16.571-92q-12-35.429 -40.571-66.857q-37.714-41.143 -80-61.714q-41.714-20.571 -116-34.286q-46.857-8.571 -113.143-6.286l-112.571,2.286q-48,1.143 -170.286-6.286q-18.857-1.714 -155.429-6.286z" horiz-adv-x="804" />
<glyph unicode="&#xe0cf;" d="M 977.455,471.273l-325.818,139.636l 130.234,93.044C 714.007,775.447, 618.356,820.364, 512,820.364
	C 331.636,820.364, 181.341,692.131, 147.037,521.914L 60.137,557.894C 109.568,761.809, 292.864,913.455, 512,913.455c 137.635,0, 260.841-60.137, 346.112-155.089L 977.455,843.636L 977.455,471.273 z
	 M 242.129,192.047C 309.946,120.553, 405.644,75.636, 512,75.636c 181.062,0, 331.776,129.21, 365.289,300.451l 86.807-37.143C 914.944,134.609, 731.462-17.455, 512-17.455
	c-137.635,0-260.887,60.137-346.112,155.089L 46.545,52.364l0,372.364 l 325.818-139.636L 242.129,192.047z" />
<glyph unicode="&#xe0ce;" d="M 930.909,401.455L 372.364,401.455 c-25.74,0-46.545,20.806-46.545,46.545s 20.806,46.545, 46.545,46.545l 558.545,0 c 25.74,0, 46.545-20.806, 46.545-46.545
	S 956.649,401.455, 930.909,401.455z M 930.909,727.273L 372.364,727.273 C 346.624,727.273, 325.818,748.079, 325.818,773.818s 20.806,46.545, 46.545,46.545l 558.545,0 c 25.74,0, 46.545-20.806, 46.545-46.545S 956.649,727.273, 930.909,727.273z M 139.636,29.091c-51.386,0-93.091,41.705-93.091,93.091
	s 41.705,93.091, 93.091,93.091s 93.091-41.705, 93.091-93.091S 191.023,29.091, 139.636,29.091z M 139.636,354.909c-51.386,0-93.091,41.705-93.091,93.091s 41.705,93.091, 93.091,93.091s 93.091-41.705, 93.091-93.091S 191.023,354.909, 139.636,354.909z M 139.636,680.727
	C 88.25,680.727, 46.545,722.432, 46.545,773.818s 41.705,93.091, 93.091,93.091s 93.091-41.705, 93.091-93.091S 191.023,680.727, 139.636,680.727z M 372.364,168.727l 558.545,0 c 25.74,0, 46.545-20.806, 46.545-46.545s-20.806-46.545-46.545-46.545L 372.364,75.636 c-25.74,0-46.545,20.806-46.545,46.545
	S 346.624,168.727, 372.364,168.727z" />
<glyph unicode="&#xe0cd;" d="M 279.2,494.533A93.067,93.067 900 1 0 465.334,494.533A93.067,93.067 900 1 0 279.2,494.533zM 698,448L 465.334,215.334L 372.267,308.401L 186.133,122.267L 1023.733,122.267 	zM 1116.8,773.734L 93.067,773.734 C 41.694,773.734,0,732.039,0,680.667l0-651.466 c0-51.373, 41.694-93.067, 93.067-93.067l 1023.733,0 c 51.373,0, 93.067,41.694, 93.067,93.067L 1209.867,680.667 C 1209.867,732.039, 1168.172,773.734, 1116.8,773.734z M 1116.8,29.201L 93.067,29.201 L 93.067,680.667 l 1023.733,0 L 1116.8,29.201 zM 1302.933,959.867L 279.2,959.867 C 227.828,959.867, 186.133,918.173, 186.133,866.8l 1116.8,0 l0-744.533 c 51.373,0, 93.067,41.694, 93.067,93.067L 1396,866.8 C 1396,918.173, 1354.306,959.867, 1302.933,959.867z" horiz-adv-x="1396" />
<glyph unicode="&#xe0cc;" d="M 930.909,773.818l-46.545,0 l0-744.727 c0-51.386-41.705-93.091-93.091-93.091L 232.727-64 c-51.386,0-93.091,41.705-93.091,93.091L 139.636,773.818 L 93.091,773.818 C 67.398,773.818, 46.545,794.624, 46.545,820.364
	s 20.852,46.545, 46.545,46.545l 279.273,0 c0,51.386, 41.705,93.091, 93.091,93.091l 93.091,0 c 51.386,0, 93.091-41.705, 93.091-93.091l 279.273,0 c 25.74,0, 46.545-20.806, 46.545-46.545S 956.649,773.818, 930.909,773.818z M 791.273,773.818L 232.727,773.818 l0-744.727 l 558.545,0 L 791.273,773.818 z M 418.909,680.727
	c 25.693,0, 46.545-20.806, 46.545-46.545l0-465.455 c0-25.74-20.852-46.545-46.545-46.545s-46.545,20.806-46.545,46.545L 372.364,634.182 C 372.364,659.921, 393.216,680.727, 418.909,680.727z M 605.091,680.727c 25.74,0, 46.545-20.806, 46.545-46.545l0-465.455 
	c0-25.74-20.806-46.545-46.545-46.545s-46.545,20.806-46.545,46.545L 558.545,634.182 C 558.545,659.921, 579.351,680.727, 605.091,680.727z" />
<glyph unicode="&#xe0cb;" d="M 1024,541.091l0-186.182 l-114.176-38.028c-6.516-19.735-14.895-38.447-24.111-56.785l 54.132-108.311l-131.677-131.631
	l-108.404,54.225c-18.246-9.169-36.957-17.548-56.599-24.017L 605.091-64L 418.909-64 l-38.121,114.362c-19.642,6.47-38.353,14.801-56.553,24.017l-108.451-54.225
	l-131.677,131.631l 54.179,108.311c-9.216,18.339-17.594,37.050-24.111,56.785L0,354.909L0,541.091 l 114.176,38.028c 6.516,19.735, 14.895,38.447, 24.111,56.785L 84.154,744.215
	l 131.677,131.631l 108.451-54.225c 18.246,9.169, 36.911,17.548, 56.553,24.017L 418.909,960l 186.182,0 l 38.074-114.362c 19.642-6.47, 38.353-14.801, 56.599-24.017l 108.404,54.225
	l 131.677-131.631l-54.132-108.311c 9.169-18.339, 17.594-37.050, 24.111-56.785L 1024,541.091z M 833.443,495.616c-8.052,54.132-29.556,103.75-60.695,145.594
	l 51.852,86.528L 791.738,760.692L 705.164,708.748c-41.891,30.953-91.369,52.271-145.455,60.276L 535.273,866.909l-46.545,0 L 464.244,768.977C 410.205,761.018, 360.727,739.7, 318.836,708.748
	L 232.262,760.692L 199.354,727.785l 51.898-86.528C 220.067,599.366, 198.609,549.795, 190.557,495.616L 93.091,471.273l0-46.545 l 97.466-24.343
	c 8.006-54.132, 29.51-103.75, 60.649-145.594l-51.898-86.528l 32.908-32.908l 86.575,51.945c 41.844-30.953, 91.369-52.271, 145.408-60.276L 488.727,29.091l 46.545,0 
	l 24.436,97.932c 54.086,8.006, 103.564,29.324, 145.455,60.276l 86.528-51.945l 32.908,32.908l-51.852,86.528c 31.139,41.844, 52.643,91.462, 60.695,145.594
	L 930.909,424.727l0,46.545 L 833.443,495.616z M 512,308.364c-77.126,0-139.636,62.511-139.636,139.636s 62.511,139.636, 139.636,139.636c 77.079,0, 139.636-62.511, 139.636-139.636S 589.079,308.364, 512,308.364z M 512,494.545
	c-25.693,0-46.545-20.806-46.545-46.545s 20.852-46.545, 46.545-46.545c 25.74,0, 46.545,20.806, 46.545,46.545S 537.74,494.545, 512,494.545z" />
<glyph unicode="&#xe0ca;" d="M 1024,680.727l-325.818-232.727L 698.182,587.636 C 251.625,587.636, 194.607,269.126, 187.252,187.671C 199.308,726.295, 698.182,727.273, 698.182,727.273L 698.182,913.455 L 1024,680.727z
	 M 187.252,187.671C 187.159,181.108, 186.182,175.476, 186.182,168.727C 186.182,168.727, 186.228,175.709, 187.252,187.671z M 93.091,727.273l0-651.636 l 744.727,0 l0,332.474 l 93.091,66.513L 930.909,75.636 c0-51.386-41.705-93.091-93.091-93.091L 93.091-17.455 
	c-51.386,0-93.091,41.705-93.091,93.091L0,727.273 c0,51.386, 41.705,93.091, 93.091,93.091l 605.091,0 c-0.047,0-182.412-0.605-346.903-93.091L 93.091,727.273 z" />
<glyph unicode="&#xe0c9;" d="M 512-64C 229.236-64,0,165.236,0,448S 229.236,960, 512,960s 512-229.236, 512-512S 794.764-64, 512-64z
	 M 512,866.909c-231.377,0-418.909-187.532-418.909-418.909s 187.532-418.909, 418.909-418.909s 418.909,187.532, 418.909,418.909S 743.377,866.909, 512,866.909z M 721.873,200.751l-12.055-7.261l-34.909-21.83l-20.573-15.453
	c-15.267-7.447-31.232-13.359-47.756-18.432l0,20.759 l-5.818,47.988c0,0-2.886,27.648-7.261,34.909s-14.522,17.455-24.716,21.83
	s-17.455,4.375-23.273,11.636s-10.193,20.387-17.455,32.023S 512,330.193, 512,336.012S 512,401.455, 512,401.455l 7.261,55.296l 16.012,11.636l 18.897,21.83L 567.296,494.545
	l 45.103-8.751l 32.023,0 l 13.079-27.648l 30.534-24.716l 18.897-30.534l 24.716-8.751l 27.648,0 l 18.897-23.273l 11.636-24.716l 4.375-17.455l0-29.091 l-2.979-17.175
	C 772.701,251.345, 749.335,224.023, 721.873,200.751z M 609.466,702.557l-32.023-17.455l-11.636-33.466L 546.909,634.182l-62.557,0 L 455.261,622.545L 453.818,599.273
	L 442.182,580.375L 439.296,559.988l 5.818-17.455l 7.261-17.455c0,0, 17.455-20.387,0-34.909c0,0-21.83,0-26.159,7.261S 389.818,525.079, 384,530.897
	s-24.716,11.636-24.716,11.636l-23.273,8.751L 314.182,552.727l 1.443,30.534L 314.182,609.466L 305.431,628.364L 280.716,647.261L 279.273,667.648l 2.979,11.311
	C 341.178,737.559, 422.353,773.818, 512,773.818c 50.595,0, 97.885-12.521, 140.614-33.094L 651.636,733.091L 609.466,702.557z" />
<glyph unicode="&#xe0c8;" d="M 512-64C 418.909-64,0,354.909,0,680.727c0,154.205, 125.068,279.273, 279.273,279.273c 97.28,0, 182.737-49.804, 232.727-125.207
	C 561.99,910.196, 647.447,960, 744.727,960c 154.205,0, 279.273-125.068, 279.273-279.273C 1024,354.909, 605.091-64, 512-64z M 744.727,866.909L 744.727,866.909L 744.727,866.909c0,0-8.285,0-21.644-2.188
	c-33.14-3.91-63.441-16.058-88.902-34.956C 574.092,790.435, 512,709.446, 512,541.091c0,168.355-62.092,249.344-122.182,288.675
	c-25.46,18.897-55.808,31.046-88.902,34.956C 287.558,866.909, 279.273,866.909, 279.273,866.909l0,0l0,0C 176.454,866.909, 93.091,783.546, 93.091,680.727c0-232.727, 325.818-628.364, 418.909-628.364S 930.909,448, 930.909,680.727
	C 930.909,783.546, 847.546,866.909, 744.727,866.909z" />
<glyph unicode="&#xe0c7;" d="M 787.921,304.128c0,0, 96.396-318.092, 49.85-364.637s-323.91,156.113-323.91,156.113
	s-281.181-202.659-327.727-156.113s 53.667,364.637, 53.667,364.637s-286.394,240.454-239.849,286.999s 344.529,50.548, 344.529,50.548s 124.742,321.769, 169.379,321.769
	c 44.637,0.047, 169.379-321.769, 169.379-321.769s 294.167-4.003, 340.713-50.548S 787.921,304.128, 787.921,304.128z M 639.953,544.582c-46.545,46.545-107.613,279.273-128,279.273
	s-81.455-232.727-128-279.273c0,0-244.364,0-244.364-23.273s 186.182-116.364, 186.182-186.182s-69.818-256-46.545-279.273s 164.352,139.636, 232.727,139.636s 209.455-162.909, 232.727-139.636s-46.545,209.455-46.545,279.273s 186.182,162.909, 186.182,186.182
	S 639.953,544.582, 639.953,544.582z" />
<glyph unicode="&#xe0c6;" d="M 1024,384.992l0,128 l-152.992,63.744c-4.256,12-8.736,23.616-14.24,35.008l 61.76,153.76L 828,856
		l-152.384-62.752c-11.616,5.632-23.488,10.368-35.744,14.752L 575.008,960l-128,0 l-63.264-151.488c-12.736-4.512-24.992-9.248-37.12-15.008l-152.128,61.12
		L 104,764.128l 62.016-150.752C 160,600.992, 155.136,588.384, 150.496,575.36L0,511.008l0-128 l 150.624-62.752c 4.64-12.992, 9.632-25.632, 15.616-38.016
		l-60.864-151.744l 90.496-90.496l 151.136,62.24c 12.128-5.76, 24.512-10.368, 37.248-14.752L 448.992-64l 128,0 l 63.36,152.256
		c 12.128,4.512, 24.128,9.248, 35.616,14.752l 153.504-61.504l 90.496,90.496l-63.008,152.736c 5.376,11.488, 9.76,23.136, 14.016,35.008L 1024,384.992z
		 M 511.008,256c-105.984,0-192,86.016-192,192s 86.016,192, 192,192s 192-86.016, 192-192S 616.992,256, 511.008,256z" />
<glyph unicode="&#xe0c5;" d="M 736,896c-76.928,0-138.592-27.616-192.96-82.016c-0.032-0.032-0.064-0.064-0.096-0.096
	l-0.032,0L 512,774.944L 481.088,811.52c-0.032,0.032-0.064,0.064-0.096,0.096L 480.96,811.616 l0,0C 426.56,866.048, 364.928,896, 288,896S 138.752,866.048, 84.352,811.648
	C 29.984,757.248,0,684.928,0,608c0-76.864, 29.92-149.184, 84.256-203.552L 466.56,18.944C 478.56,6.816, 494.944,0, 512,0s 33.44,6.816, 45.44,18.944
	l 382.272,385.504C 994.048,458.816, 1024,531.104, 1024,608c0,76.928-29.984,149.248-84.352,203.648C 885.248,866.048, 812.928,896, 736,896L 736,896z" />
<glyph unicode="&#xe0c4;" d="M 448,320l-96,0 l0,1.952 C 341.44,320.864, 330.848,320, 320,320C 143.296,320,0,463.264,0,640
	C0,816.736, 143.296,960, 320,960s 320-143.264, 320-320l0-128 l 32,0 l0-32 l 32,0 l0-32 l 32,0 l0-32 l 32,0 l0-32 l 32,0 l0-32 l 32,0 l0-32 l 32,0 l0-32 l 32,0 l0-32 l 32,0 l0-32 l 32,0 l0-32 l 32,0 l0-32 l 32,0 l0-64 l0-128 c0-17.696-14.304-32-32-32l-128,0 
	c-17.696,0-32,14.304-32,32l0,128 l-32,0 l-32,0 l-96,0 c-17.664,0-32,14.304-32,32l0,128 l-128,0 l-32,0  M 256,832C 185.312,832, 128,774.688, 128,704s 57.312-128, 128-128s 128,57.312, 128,128S 326.688,832, 256,832z" />
<glyph unicode="&#xe0c3;" d="M 1024,256c0-35.328-28.672-64-64-64l0-69.888 c 37.184-13.248, 64-48.384, 64-90.112
	c0-52.992-43.008-96-96-96c-41.76,0-76.896,26.816-90.112,64L 768,0 c0-35.328-28.672-64-64-64s-64,28.672-64,64l-64,0 c0-35.328-28.672-64-64-64s-64,28.672-64,64l-64,0 
	c0-35.328-28.672-64-64-64s-64,28.672-64,64L 186.112,0 C 172.896-37.184, 137.728-64, 96-64c-53.024,0-96,43.008-96,96c0,41.76, 26.784,76.864, 64,90.112L 64,192 
	c-35.328,0-64,28.672-64,64s 28.672,64, 64,64l0,64 c-35.328,0-64,28.672-64,64s 28.672,64, 64,64l0,64 c-35.328,0-64,28.672-64,64s 28.672,64, 64,64L 64,773.888 
	C 26.784,787.104,0,822.272,0,864c0,53.024, 42.976,96, 96,96c 41.728,0, 76.896-26.784, 90.112-64L 256,896 c0,35.328, 28.672,64, 64,64s 64-28.672, 64-64l 64,0 
	c0,35.328, 28.672,64, 64,64s 64-28.672, 64-64l 64,0 c0,35.328, 28.672,64, 64,64s 64-28.672, 64-64l 69.888,0 C 851.104,933.216, 886.24,960, 928,960c 52.992,0, 96-42.976, 96-96
	c0-41.728-26.816-76.896-64-90.112L 960,704 c 35.328,0, 64-28.672, 64-64s-28.672-64-64-64l0-64 c 35.328,0, 64-28.672, 64-64s-28.672-64-64-64l0-64 C 995.328,320, 1024,291.328, 1024,256z
	 M 832,736c0,17.664-14.304,32-32,32L 224,768 C 206.336,768, 192,753.664, 192,736l0-576 c0-17.696, 14.336-32, 32-32l 576,0 c 17.696,0, 32,14.304, 32,32L 832,736 z" />
<glyph unicode="&#xe0c2;" d="M 863.68,364.32c 68.992-51.424, 128.128-98.496, 128.128-98.496l-84.192-147.648l-152.16,67.168
	l-140.992-82.464C 604.928,15.936, 596.192-64, 596.192-64l-168.384,0 l-18.688,167.392l-138.944,82.656l-153.824-67.904l-84.16,147.648
	c0,0, 58.144,46.848, 126.976,98.112l0,168.288 l-126.976,97.92l 84.16,147.68l 150.144-66.816l 149.056,80.864L 427.808,960l 168.384,0 l 12.192-167.456l 147.008-82.496
	l 152.256,67.776l 84.192-147.68l-128.128-98.272L 863.712,364.32 z M 512,576c-70.688,0-128-57.312-128-128s 57.312-128, 128-128s 128,57.312, 128,128S 582.688,576, 512,576z" />
<glyph unicode="&#xe0c1;" d="M 1021.248,787.2L 928,416c0-4.448-0.896-8.64-2.496-12.448
	c-3.264-7.68-9.376-13.824-17.024-17.056C 904.64,384.864, 900.416,384, 896,384L 288,384 l 25.6-128L 864,256 c 17.696,0, 32-14.304, 32-32s-14.304-32-32-32L 288,192 
	c-17.696,0-32,14.304-32,32L 134.4,832L 32,832 C 14.336,832,0,846.336,0,864s 14.336,32, 32,32l 128,0 c 17.696,0, 32-14.336, 32-32l 6.4-32L 992,832 c 17.696,0, 32-14.336, 32-32
	C 1024,795.424, 1022.976,791.136, 1021.248,787.2z M 275.2,448L 384,448 L 384,768 L 211.2,768 L 275.2,448z M 576,768l-160,0 l0-320 l 160,0 L 576,768 z M 768,768l-160,0 l0-320 l 160,0 L 768,768 z M 800,768l0-320 l 72.096,0 l 81.056,320L 800,768 z
	 M 352,128c 53.024,0, 96-43.008, 96-96s-42.976-96-96-96s-96,43.008-96,96S 298.976,128, 352,128z M 352,0c 17.696,0, 32,14.304, 32,32s-14.304,32-32,32s-32-14.304-32-32
	S 334.304,0, 352,0z M 800,128c 53.024,0, 96-43.008, 96-96s-42.976-96-96-96s-96,43.008-96,96S 746.976,128, 800,128z M 800,0c 17.696,0, 32,14.304, 32,32s-14.304,32-32,32
	s-32-14.304-32-32S 782.304,0, 800,0z" />
<glyph unicode="&#xe0c0;" d="M 928,832L 96,832 C 42.976,832,0,789.024,0,736l0-576 c0-52.992, 42.976-96, 96-96l 832,0 c 53.024,0, 96,43.008, 96,96L 1024,736 C 1024,789.024, 981.024,832, 928,832z M 87.712,128.32
	L 64.32,151.744l 263.968,263.936l 23.392-23.424L 87.712,128.32z M 936.288,128.32l-263.968,263.936l 23.392,23.424l 263.968-263.936L 936.288,128.32z M 544,341.6
	L 544,320 l-64,0 l0,21.6 L 64.096,727.2l 40.704,40.704L 512,390.368L 919.2,767.904l 40.704-40.704L 544,341.6z" />
<glyph unicode="&#xe0bf;" d="M 707.88,475.348C 745.378,519.89, 768,577.356, 768,640c0,141.16-114.842,256-256,256l-128,0 l-128,0 L 192,896 l0-896 l 64,0 l 128,0 l 192,0 
	c 141.158,0, 256,114.842, 256,256C 832,348.956, 782.202,430.496, 707.88,475.348z M 384,768l 101.5,0 c 55.968,0, 101.5-57.42, 101.5-128
	s-45.532-128-101.5-128L 384,512 L 384,768 z M 543,128L 384,128 L 384,384 l 159,0 c 58.45,0, 106-57.42, 106-128S 601.45,128, 543,128z" />
<glyph unicode="&#xe0be;" d="M 853.342,960L 170.686,960 C 76.812,960,0,883.19,0,789.31l0-682.622 C0,12.75, 76.812-64, 170.686-64l 682.656,0 
	C 947.218-64, 1024,12.75, 1024,106.69L 1024,789.31 C 1024,883.19, 947.218,960, 853.342,960z M 853.342,832c 7.988,0, 15.546-2.334, 22.020-6.342
	L 512,525.254L 148.646,825.654C 155.124,829.664, 162.69,832, 170.686,832L 853.342,832 z M 170.686,64c-1.924,0-3.82,0.146-5.684,0.408
	l 225.626,312.966l-29.256,29.254L 128,173.258L 128,784.396 L 512,320L 896,784.394l0-611.136 L 662.628,406.628l-29.254-29.254l 225.628-312.968
	c-1.858-0.26-3.746-0.406-5.662-0.406L 170.686,64 z" />
<glyph unicode="&#xe0bc;" d="M 853.342,960L 170.686,960 C 76.812,960,0,883.19,0,789.31l0-682.622 C0,12.75, 76.812-64, 170.686-64l 682.656,0 
	C 947.218-64, 1024,12.75, 1024,106.69L 1024,789.31 C 1024,883.19, 947.218,960, 853.342,960z M 182.628,73.374l-77.256,77.254l 256,256
	l 29.256-29.254L 182.628,73.374z M 153.372,761.372l 29.256,29.256L 512,525.254L 841.374,790.628l 29.254-29.256L 512,338.746L 153.372,761.372z
	 M 841.374,73.374l-208,304l 29.254,29.254l 256-256L 841.374,73.374z" />
<glyph unicode="&#xe0bd;" d="M 512,960C 229.23,960,0,730.77,0,448s 229.23-512, 512-512s 512,229.23, 512,512S 794.77,960, 512,960z M 256,704l 512,0 
	c 9.138,0, 18.004-1.962, 26.144-5.662L 512,369.17L 229.856,698.34C 237.996,702.036, 246.862,704, 256,704z M 192,256L 192,640 
	c0,1.34, 0.056,2.672, 0.14,4l 187.664-218.942L 194.206,239.46C 192.762,244.796, 192,250.346, 192,256z M 768,192L 256,192 
	c-5.654,0-11.202,0.762-16.54,2.208l 182.118,182.118L 512,270.828l 90.424,105.494l 182.116-182.12C 779.2,192.762, 773.654,192, 768,192z
	 M 832,256c0-5.654-0.762-11.2-2.206-16.54l-185.6,185.598L 831.86,644c 0.084-1.328, 0.14-2.66, 0.14-4L 832,256 z" />
<glyph unicode="&#xe0bb;" d="M 832,704l 192,192L 960,960l-192-192L 320,768 L 320,960 L 192,960 l0-192 L0,768 l0-128 l 192,0 l0-512 l 512,0 l0-192 l 128,0 l0,192 l 192,0 l0,128 l-192,0 L 832,704 z M 320,640l 320,0 L 320,320L 320,640 z M 384,256
	l 320,320l0-320 L 384,256 z" />
<glyph unicode="&#xe0ba;" d="M 890.774,250.846c-45.654,45.556-103.728,69.072-157.946,69.072l-29.112,0 l-63.904,64.008l 255.62,256.038
	c 63.904,64.010, 63.904,192.028,0,256.038L 512.002,511.946L 128.57,896c-63.904-64.008-63.904-192.028,0-256.038l 255.622-256.034
	l-63.906-64.008l-29.114,0 c-54.22,0-112.292-23.518-157.948-69.076c-81.622-81.442-92.65-202.484-24.63-270.35
	C 138.564-49.408, 178.882-64, 221.59-64c 54.216,0, 112.29,23.514, 157.946,69.072c 53.584,53.464, 76.742,124, 67.084,185.348l 65.384,65.488
	l 65.376-65.488c-9.656-61.348, 13.506-131.882, 67.084-185.348C 690.126-40.486, 748.196-64, 802.412-64
	c 42.708,0, 83.024,14.592, 112.994,44.496C 983.426,48.362, 972.394,169.404, 890.774,250.846z M 353.024,114.462
	c-7.698-17.882-19.010-34.346-33.626-48.926c-14.636-14.604-31.172-25.918-49.148-33.624c-16.132-6.916-32.96-10.568-48.662-10.568
	c-15.146,0-36.612,3.402-52.862,19.612c-16.136,16.104-19.52,37.318-19.52,52.288c0,15.542, 3.642,32.21, 10.526,48.212
	c 7.7,17.884, 19.014,34.346, 33.626,48.926c 14.634,14.606, 31.172,25.914, 49.15,33.624c 16.134,6.914, 32.96,10.568, 48.664,10.568
	c 15.146,0, 36.612-3.4, 52.858-19.614c 16.134-16.098, 19.522-37.316, 19.522-52.284C 363.554,147.134, 359.914,130.46, 353.024,114.462z
	 M 512.004,293.404c-49.914,0-90.376,40.532-90.376,90.526c0,49.992, 40.462,90.52, 90.376,90.52s 90.372-40.528, 90.372-90.52
	C 602.376,333.932, 561.916,293.404, 512.004,293.404z M 855.272,40.958c-16.248-16.208-37.712-19.612-52.86-19.612
	c-15.704,0-32.53,3.652-48.666,10.568c-17.972,7.706-34.508,19.020-49.142,33.624c-14.614,14.58-25.926,31.042-33.626,48.926
	c-6.886,15.998-10.526,32.672-10.526,48.212c0,14.966, 3.384,36.188, 19.52,52.286c 16.246,16.208, 37.712,19.614, 52.86,19.614
	c 15.7,0, 32.53-3.654, 48.66-10.568c 17.978-7.708, 34.516-19.018, 49.15-33.624c 14.61-14.58, 25.924-31.042, 33.626-48.926
	c 6.884-15.998, 10.526-32.67, 10.526-48.212C 874.792,78.276, 871.404,57.060, 855.272,40.958z" />
<glyph unicode="&#xe0b9;" d="M 1024,601.844 C 1024,515.482 986.782,437.814 927.51,384 L 928,384 L 608,64 C 576,32 544,0 512,0 C 480,0 448,32 416,64 L 96,384 L 96.49,384 C 37.218,437.814 0,515.482 0,601.844 C 0,764.302 131.698,896 294.156,896 C 349.606,896 401.458,880.636 445.728,853.964 L 352,704 L 576,576 L 448,256 L 800,640 L 576,768 L 654.892,886.34 C 678.824,892.628 703.938,896 729.844,896 C 892.3,896 1024,764.302 1024,601.844 Z" />
<glyph unicode="&#xe0b8;" d="M 1024,601.844C 1024,764.302, 892.3,896, 729.844,896C 643.482,896, 565.814,858.782, 512,799.51C 458.186,858.782, 380.518,896, 294.156,896
	C 131.698,896,0,764.302,0,601.844C0,515.482, 37.218,437.814, 96.49,384L 96,384 l 320-320c 32-32, 64-64, 96-64s 64,32, 96,64l 320,320l-0.49,0 
	C 986.782,437.814, 1024,515.482, 1024,601.844z M 841.468,478.768L 517.49,154.51c-1.678-1.678-3.532-3.532-5.49-5.48
	c-1.96,1.95-3.814,3.802-5.49,5.48L 182.532,478.766C 147.366,510.694, 128,554.404, 128,601.844C 128,693.462, 202.538,768, 294.156,768
	c 47.44,0, 91.15-19.366, 123.076-54.532L 512,609.088l 94.768,104.378C 638.696,748.634, 682.404,768, 729.844,768
	C 821.462,768, 896,693.462, 896,601.844C 896,554.404, 876.632,510.694, 841.468,478.768z" />
<glyph unicode="&#xe0b7;" d="M 1024,601.844 C 1024,515.482 986.782,437.814 927.51,384 L 928,384 L 608,64 C 576,32 544,0 512,0 C 480,0 448,32 416,64 L 96,384 L 96.49,384 C 37.218,437.814 0,515.482 0,601.844 C 0,764.302 131.698,896 294.156,896 C 380.518,896 458.186,858.782 512,799.51 C 565.814,858.782 643.482,896 729.844,896 C 892.3,896 1024,764.302 1024,601.844 Z" />
<glyph unicode="&#xe0b6;" d="M 1024,562.95L 670.22,614.358L 512,934.94l-158.216-320.582L0,562.95l 256-249.538L 195.568-38.94L 512,127.418l 316.432-166.358
	l-60.434,352.352L 1024,562.95z" />
<glyph unicode="&#xe0b5;" d="M 1024,562.95l-353.78,51.408L 512,934.94l-158.216-320.582L0,562.95l 256-249.538L 195.568-38.94L 512,127.418l 316.432-166.358
	l-60.434,352.352L 1024,562.95z M 512,206.502l-0.942-0.496L 512,776.774l 111.736-226.396l 249.836-36.304l-180.788-176.222l 42.678-248.83
	L 512,206.502z" />
<glyph unicode="&#xe0b4;" d="M 1024,562.95l-353.78,51.408L 512,934.94l-158.216-320.582L0,562.95l 256-249.538L 195.568-38.94L 512,127.418l 316.432-166.358
	l-60.434,352.352L 1024,562.95z M 512,206.502l-223.462-117.48l 42.676,248.83l-180.786,176.222l 249.84,36.304L 512,776.774l 111.736-226.396
	l 249.836-36.304l-180.788-176.222l 42.678-248.83L 512,206.502z" />
<glyph unicode="&#xe0b3;" d="M 512,640C 302.632,640, 116.756,539.444,0,384c 116.756-155.446, 302.632-256, 512-256c 209.368,0, 395.244,100.554, 512,256
	C 907.244,539.444, 721.368,640, 512,640z M 448,512c 35.346,0, 64-28.654, 64-64s-28.654-64-64-64s-64,28.654-64,64S 412.654,512, 448,512z
	 M 773.616,254.704c-39.648-20.258-81.652-35.862-124.846-46.376C 604.282,197.492, 558.268,192, 512,192
	c-46.266,0-92.282,5.492-136.768,16.324c-43.194,10.518-85.198,26.122-124.846,46.376c-63.020,32.202-120.222,76.41-167.64,129.298
	c 47.418,52.888, 104.62,97.1, 167.64,129.298c 32.336,16.522, 66.242,29.946, 101.082,40.040C 331.58,523.094, 320,486.902, 320,448
	c0-106.040, 85.962-192, 192-192c 106.038,0, 192,85.96, 192,192c0,38.902-11.582,75.094-31.466,105.34c 34.838-10.096, 68.744-23.52, 101.082-40.042
	c 63.022-32.198, 120.218-76.408, 167.638-129.298C 893.834,331.114, 836.636,286.9, 773.616,254.704z M 860.918,716.278
	C 752.198,771.832, 634.806,800, 512,800c-122.806,0-240.198-28.168-348.918-83.722C 104.31,686.246, 49.35,648.374,0,604.202l0-109.206 
	c 55.338,58.566, 120.694,107.754, 192.194,144.29C 291.814,690.19, 399.412,716, 512,716s 220.186-25.81, 319.804-76.716
	c 71.502-36.536, 136.858-85.724, 192.196-144.29L 1024,604.2 C 974.65,648.374, 919.692,686.246, 860.918,716.278z" />
<glyph unicode="&#xe0b2;" d="M 839.322,663.584 C 916.966,608.554 980.692,534.492 1024,448 C 928.878,258.042 735.314,128 512,128 C 449.434,128 389.208,138.212 332.822,157.084 L 410.778,235.040 C 443.836,227.74 477.75,224 512,224 C 601.558,224 688.854,249.486 764.446,297.704 C 824.608,336.080 875.59,387.48 913.882,448.002 C 876.83,506.568 827.868,556.552 770.232,594.496 L 839.322,663.584 ZM 512,262 C 489.276,262 467.248,264.976 446.272,270.534 L 759.458,583.718 C 765.020,562.746 768,540.724 768,518 C 768,376.616 653.384,262 512,262 ZM 960,960l-53.738,0 L 686.65,740.388C 631.574,758.312, 572.896,768, 512,768C 288.682,768, 95.118,637.958,0,448
		c 42.658-85.192, 105.128-158.308, 181.194-213.068L0,53.738L0,0 l 53.738,0 L 960,906.262L 960,960 z M 416,646c 48.044,0, 87.846-35.294, 94.892-81.37
		l-109.524-109.524C 355.294,462.154, 320,501.956, 320,550C 320,603.020, 362.98,646, 416,646z M 110.116,448
		c 38.292,60.524, 89.274,111.924, 149.434,150.296c 3.918,2.5, 7.876,4.922, 11.858,7.3C 261.45,578.268, 256,548.774, 256,518
		c0-58.524, 19.65-112.448, 52.698-155.562l-58.55-58.55C 194.076,341.53, 146.394,390.66, 110.116,448z" />
<glyph unicode="&#xe0b1;" d="M 512,768C 288.682,768, 95.118,637.958,0,448c 95.118-189.958, 288.682-320, 512-320c 223.314,0, 416.878,130.042, 512,320
	C 928.884,637.958, 735.314,768, 512,768z M 764.45,598.296c 60.162-38.374, 111.142-89.774, 149.434-150.296
	c-38.292-60.522-89.274-111.922-149.436-150.298C 688.854,249.486, 601.558,224, 512,224c-89.56,0-176.856,25.486-252.45,73.704
	C 199.39,336.076, 148.41,387.476, 110.116,448c 38.292,60.524, 89.274,111.924, 149.434,150.296c 3.918,2.5, 7.876,4.922, 11.858,7.3
	C 261.45,578.268, 256,548.774, 256,518c0-141.384, 114.616-256, 256-256s 256,114.616, 256,256c0,30.774-5.45,60.268-15.408,87.598
	C 756.572,603.22, 760.53,600.796, 764.45,598.296z M 512,550c0-53.020-42.98-96-96-96s-96,42.98-96,96s 42.98,96, 96,96
	S 512,603.020, 512,550z" />
<glyph unicode="&#xe0b0;" d="M 697.832,632.952l-64.952,64.922L 308.070,373.132c-53.814-53.792-53.814-141.048,0-194.844
	c 53.804-53.792, 141.060-53.792, 194.874,0l 389.772,389.708c 89.714,89.662, 89.714,235.062,0,324.726
	c-89.666,89.704-235.112,89.704-324.782,0L 158.67,483.576l 0.034-0.032c-0.29-0.304-0.612-0.576-0.876-0.846
	c-125.102-125.096-125.102-327.856,0-452.906c 125.054-125.056, 327.868-125.056, 452.988,0c 0.274,0.274, 0.516,0.568, 0.82,0.876l 0.032-0.034
	l 279.332,279.292l-64.986,64.92L 546.7,95.584l-0.016,0 c-0.296-0.268-0.564-0.57-0.846-0.844
	c-89.074-89.058-233.98-89.058-323.076,0c-89.062,89.042-89.062,233.922,0,322.978c 0.304,0.304, 0.604,0.582, 0.888,0.846l-0.046,0.060
	l 409.28,409.166c 53.712,53.738, 141.144,53.738, 194.886,0c 53.712-53.734, 53.712-141.148,0-194.84L 437.998,243.25
	c-17.936-17.922-47.054-17.922-64.972,0c-17.894,17.886-17.894,47.032,0,64.92L 697.832,632.952z" />
<glyph unicode="&#xe0af;" d="M 874.040,810.038 C 970.742,713.334 1024,584.758 1024,447.998 C 1024,311.238 970.742,182.664 874.040,85.96 C 777.334-10.742 648.76-64 512-64 C 375.24-64 246.666-10.742 149.96,85.96 C 53.258,182.664 0,311.238 0,447.998 C 0,584.758 53.254,713.334 149.96,810.038 C 246.666,906.742 375.24,960 512,960 C 648.76,960 777.334,906.742 874.040,810.038 Z M 828.784,131.214 C 891.842,194.274 933.77,272.822 951.056,358.276 C 937.582,338.44 924.694,331.082 916.712,375.482 C 908.492,447.872 842.004,401.63 800.196,427.342 C 756.192,397.684 657.29,485.004 674.098,386.518 C 700.032,342.096 814.106,445.968 757.246,351.976 C 720.972,286.36 624.604,141.044 637.14,65.718 C 638.722-44.026 525.006,42.834 485.826,79.238 C 459.47,152.158 476.844,279.612 407.928,315.324 C 333.126,318.572 268.924,325.37 239.934,408.994 C 222.488,468.822 258.498,557.888 322.612,571.638 C 416.462,630.604 449.986,502.584 538.002,500.204 C 565.33,528.798 639.818,537.89 645.994,569.954 C 588.244,580.144 719.262,618.512 640.466,640.336 C 596.996,635.224 568.988,595.262 592.098,561.378 C 507.86,541.736 505.162,683.282 424.188,638.636 C 422.13,568.046 291.966,615.75 379.152,630.064 C 409.108,643.152 330.292,681.080 372.872,674.188 C 393.788,675.324 464.204,700 445.148,716.59 C 484.358,740.93 517.308,658.3 555.686,718.472 C 583.394,764.738 544.066,773.28 509.336,749.828 C 489.756,771.752 543.906,819.104 591.668,839.566 C 607.586,846.386 622.79,850.102 634.414,849.050 C 658.472,821.258 702.964,816.444 705.292,852.392 C 645.71,880.926 580.016,896 512,896 C 414.378,896 321.53,864.976 244.692,807.61 C 265.342,798.15 277.064,786.372 257.17,771.314 C 241.714,725.26 179,663.438 123.946,672.19 C 95.36,622.894 76.534,568.584 68.486,511.662 C 114.598,496.406 125.23,466.212 115.322,456.112 C 91.826,435.624 77.386,406.582 69.946,374.79 C 84.956,282.954 128.118,198.314 195.216,131.214 C 279.832,46.6 392.334,0 512,0 C 631.664,0 744.168,46.6 828.784,131.214 Z" />
<glyph unicode="&#xe0ae;" d="M 953.396,885.358l-4.028,4.042c-94.148,94.134-248.194,94.134-342.326,0L 388.936,671.264
		c-94.134-94.132-94.134-248.176,0-342.31l 4.026-4.026c 7.832-7.848, 16.146-14.924, 24.736-21.458l 79.848,79.85
		c-9.302,5.494-18.126,12.072-26.116,20.060l-4.042,4.042c-51.114,51.098-51.114,134.272,0,185.39L 685.516,810.924
		c 51.116,51.118, 134.274,51.118, 185.386,0l 4.042-4.024c 51.1-51.116, 51.1-134.292,0-185.39l-98.686-98.686
		c 17.132-42.308, 25.248-87.4, 24.538-132.386l 152.604,152.604C 1047.534,637.178, 1047.534,791.22, 953.396,885.358zM 631.042,571.066c-7.832,7.832-16.146,14.922-24.736,21.44l-79.848-79.832c 9.304-5.496, 18.126-12.074, 26.116-20.062l 4.042-4.040
		c 51.116-51.116, 51.116-134.272,0-185.388L 338.486,85.050c-51.118-51.102-134.276-51.102-185.388,0l-4.042,4.042
		c-51.098,51.12-51.098,134.276,0,185.388l 98.688,98.686c-17.134,42.306-25.246,87.402-24.538,132.386l-152.602-152.598
		c-94.136-94.132-94.136-248.178,0-342.324l 4.026-4.032c 94.152-94.128, 248.192-94.128, 342.328,0l 218.11,218.118
		c 94.134,94.132, 94.134,248.194,0,342.326L 631.042,571.066z" />
<glyph unicode="&#xe0ad;" d="M 384,896l 640,0 l0-128 L 384,768 L 384,896 z M 384,512l 640,0 l0-128 L 384,384 L 384,512 z M 384,128l 640,0 l0-128 L 384,0 L 384,128 zM0,832A128,128 3060 1 1 256,832A128,128 3060 1 1 0,832zM0,448A128,128 3060 1 1 256,448A128,128 3060 1 1 0,448zM0,64A128,128 3060 1 1 256,64A128,128 3060 1 1 0,64z" />
<glyph unicode="&#xe0ac;" d="M 771.516,640c 18.126,12.88, 35.512,27.216, 51.444,43.148c 33.402,33.402, 55.746,74.5, 62.912,115.722
	c 7.858,45.186-3.672,87.14-31.63,115.1c-22.3,22.298-52.51,34.086-87.364,34.086c-49.632,0-101.922-23.824-143.46-65.362
	c-66.476-66.476-105.226-158.238-126.076-223.722c-15.44,65.802-46.206,154.644-106.018,214.458C 359.23,905.522, 318.21,922, 279.478,922
	c-31.654,0-61.78-11.004-84.26-33.486c-49.986-49.988-43.232-137.786, 15.086-196.104c 20.792-20.792, 45.098-38.062, 70.72-52.412L 64,639.998 l0-256 
	l 64,0 l0-448 l 768,0 L 896,384 l 64,0 L 960,640 L 771.516,640 z M 674.326,831.782c 27.724,27.724, 62.322,44.274, 92.55,44.274c 10.7,0, 25.708-2.254, 36.45-12.998
	c 26.030-26.028, 11.412-86.308-31.28-128.998c-43.946-43.946-103.060-74.168-154.432-94.060l-50.672,0 
	C 585.51,697.548, 619,776.456, 674.326,831.782z M 233.934,799.11c-0.702,9.12-0.050,26.248, 12.196,38.494
	C 256.374,847.848, 269.918,850, 279.478,850l0,0 c 21.258,0, 43.468-10.016, 60.932-27.48c 33.872-33.872, 61.766-87.772, 80.668-155.876
	c 0.51-1.84, 1.008-3.67, 1.496-5.486c-1.816,0.486-3.646,0.984-5.486,1.496c-68.104,18.904-122.002,46.798-155.874,80.67
	C 245.386,759.15, 235.444,779.484, 233.934,799.11z M 448,0L 192,0 L 192,416 l 256,0 L 448,0 z M 448,448L 128,448 l0,128 l 320,0 L 448,448 z M 832,0L 576,0 L 576,416 l 256,0 L 832,0 z
	 M 896,448L 576,448 l0,128 l 320,0 L 896,448 z" />
<glyph unicode="&#xe0ab;" d="M 1024,351.906l0,192.188 l-146.774,24.462c-5.958,18.132-13.222,35.668-21.694,52.5l 86.454,121.034l-135.896,135.898l-120.826-86.304
		c-16.91,8.554-34.538,15.888-52.768,21.902L 608.094,960l-192.188,0 l-24.402-146.416c-18.23-6.014-35.858-13.348-52.766-21.902
		l-120.828,86.304l-135.898-135.898l 86.454-121.036c-8.47-16.83-15.734-34.366-21.692-52.498L0,544.094l0-192.188 l 147.118-24.52
		c 5.96-17.968, 13.21-35.348, 21.642-52.030l-86.748-121.448l 135.898-135.896l 121.654,86.894c 16.602-8.35, 33.89-15.528, 51.764-21.434
		L 415.906-64l 192.188,0 l 24.578,147.474c 17.874,5.906, 35.162,13.084, 51.766,21.432l 121.652-86.892l 135.896,135.896l-86.744,121.446
		c 8.432,16.682, 15.678,34.062, 21.64,52.032L 1024,351.906z M 512,320c-70.692,0-128,57.306-128,128c0,70.692, 57.308,128, 128,128
		c 70.694,0, 128-57.308, 128-128C 640,377.306, 582.694,320, 512,320z" />
<glyph unicode="&#xe0aa;" d="M 363.722,237.948l 41.298,57.816l-45.254,45.256l-57.818-41.296c-10.722,5.994-22.204,10.774-34.266,14.192L 256,384L 192,384 
		l-11.68-70.086c-12.062-3.418-23.544-8.198-34.266-14.192L 88.236,341.020L 42.98,295.764l 41.298-57.816
		c-5.994-10.72-10.774-22.206-14.192-34.266L0,192l0-64 l 70.086-11.682c 3.418-12.060, 8.198-23.544, 14.192-34.266L 42.98,24.236l 45.254-45.256
		l 57.818,41.296c 10.722-5.994, 22.204-10.774, 34.266-14.192L 192-64l 64,0 l 11.68,70.086c 12.062,3.418, 23.544,8.198, 34.266,14.192l 57.818-41.296
		l 45.254,45.256l-41.298,57.816c 5.994,10.72, 10.774,22.206, 14.192,34.266L 448,128l0,64 l-70.086,11.682
		C 374.496,215.742, 369.716,227.226, 363.722,237.948z M 224,96c-35.348,0-64,28.654-64,64s 28.652,64, 64,64s 64-28.654, 64-64
		S 259.348,96, 224,96zM 1024,576l0,64 l-67.382,12.25c-1.242,8.046-2.832,15.978-4.724,23.79l 57.558,37.1L 984.96,772.268l-66.944-14.468
		c-4.214,6.91-8.726,13.62-13.492,20.13l 39.006,56.342l-45.256,45.254l-56.342-39.006c-6.512,4.766-13.22,9.276-20.13,13.494
		l 14.468,66.944L 777.142,945.452l-37.1-57.558c-7.812,1.892-15.744,3.482-23.79,4.724L 704,960l-64,0 l-12.252-67.382
		c-8.046-1.242-15.976-2.832-23.79-4.724L 566.86,945.452L 507.732,920.96l 14.468-66.944c-6.91-4.216-13.62-8.728-20.13-13.494
		l-56.342,39.006l-45.254-45.254l 39.006-56.342c-4.766-6.51-9.278-13.22-13.494-20.13l-66.944,14.468l-24.492-59.128l 57.558-37.1
		c-1.892-7.812-3.482-15.742-4.724-23.79L 320,640l0-64 l 67.382-12.25c 1.242-8.046, 2.832-15.978, 4.724-23.79l-57.558-37.1
		l 24.492-59.128l 66.944,14.468c 4.216-6.91, 8.728-13.618, 13.494-20.13l-39.006-56.342l 45.254-45.256l 56.342,39.006
		c 6.51-4.766, 13.22-9.276, 20.13-13.492l-14.468-66.944l 59.128-24.492l 37.102,57.558c 7.81-1.892, 15.742-3.482, 23.788-4.724L 640,256l 64,0 
		l 12.252,67.382c 8.044,1.242, 15.976,2.832, 23.79,4.724l 37.1-57.558l 59.128,24.492l-14.468,66.944
		c 6.91,4.216, 13.62,8.726, 20.13,13.492l 56.342-39.006l 45.256,45.256l-39.006,56.342c 4.766,6.512, 9.276,13.22, 13.492,20.13
		l 66.944-14.468l 24.492,59.13l-57.558,37.1c 1.892,7.812, 3.482,15.742, 4.724,23.79L 1024,576z M 672,468.8
		c-76.878,0-139.2,62.322-139.2,139.2c0,76.878, 62.32,139.2, 139.2,139.2s 139.2-62.322, 139.2-139.2C 811.2,531.122, 748.88,468.8, 672,468.8z" />
<glyph unicode="&#xe0a9;" d="M 933.79,349.75c-53.726,93.054-21.416,212.304, 72.152,266.488l-100.626,174.292c-28.75-16.854-62.176-26.518-97.846-26.518
	c-107.536,0-194.708,87.746-194.708,195.99L 411.504,960.002 c 0.266-33.41-8.074-67.282-25.958-98.252
	c-53.724-93.056-173.156-124.702-266.862-70.758L 18.060,616.7c 28.97-16.472, 54.050-40.588, 71.886-71.478
	c 53.638-92.908, 21.512-211.92-71.708-266.224l 100.626-174.292c 28.65,16.696, 61.916,26.254, 97.4,26.254
	c 107.196,0, 194.144-87.192, 194.7-194.958l 201.254,0 c-0.086,33.074, 8.272,66.57, 25.966,97.218
	c 53.636,92.906, 172.776,124.594, 266.414,71.012l 100.626,174.29C 976.444,294.988, 951.532,319.020, 933.79,349.75z M 512,240.668
	c-114.508,0-207.336,92.824-207.336,207.334c0,114.508, 92.826,207.334, 207.336,207.334c 114.508,0, 207.332-92.826, 207.332-207.334
	C 719.33,333.492, 626.508,240.668, 512,240.668z" />
<glyph unicode="&#xe0a8;" d="M 704,960c-176.73,0-320-143.268-320-320c0-20.026, 1.858-39.616, 5.376-58.624L0,192l0-192 c0-35.346, 28.654-64, 64-64
	l 64,0 l0,64 l 128,0 l0,128 l 128,0 l0,128 l 128,0 l 83.042,83.042C 629.052,326.726, 665.738,320, 704,320c 176.73,0, 320,143.268, 320,320S 880.73,960, 704,960z
	 M 799.874,639.874c-53.020,0-96,42.98-96,96s 42.98,96, 96,96s 96-42.98, 96-96S 852.894,639.874, 799.874,639.874z" />
<glyph unicode="&#xe0a7;" d="M 64,384 L 448,384 L 448,0 L 309.74,138.26 L 107.74-63.74 L 0.26,43.74 L 202.26,245.74 ZM 821.74,245.74 L 1023.74,43.74 L 916.26-63.74 L 714.26,138.26 L 576,0 L 576,384 L 960,384 ZM 960,512 L 576,512 L 576,896 L 714.26,757.74 L 916.26,959.74 L 1023.74,852.26 L 821.74,650.26 ZM 309.74,757.74 L 448,896 L 448,512 L 64,512 L 202.26,650.26 L 0.26,852.26 L 107.74,959.74 Z" />
<glyph unicode="&#xe0a6;" d="M 1024,960 L 1024,576 L 885.74,714.26 L 673.74,502.26 L 566.26,609.74 L 778.26,821.74 L 640,960 ZM 245.74,821.74 L 457.74,609.74 L 350.26,502.26 L 138.26,714.26 L 0,576 L 0,960 L 384,960 ZM 885.74,181.74 L 1024,320 L 1024-64 L 640-64 L 778.26,74.26 L 566.26,286.26 L 673.74,393.74 ZM 457.74,286.26 L 245.74,74.26 L 384-64 L 0-64 L 0,320 L 138.26,181.74 L 350.26,393.74 Z" />
<glyph unicode="&#xe0a5;" d="M 992.262,88.604L 749.71,294.898c-25.074,22.566-51.89,32.926-73.552,31.926C 733.414,393.892, 768,480.902, 768,576
		C 768,788.078, 596.078,960, 384,960C 171.924,960,0,788.078,0,576c0-212.078, 171.922-384, 384-384c 95.098,0, 182.108,34.586, 249.176,91.844
		c-1-21.662, 9.36-48.478, 31.926-73.552l 206.294-242.552c 35.322-39.246, 93.022-42.554, 128.22-7.356S 1031.508,53.282, 992.262,88.604
		z M 384,320c-141.384,0-256,114.616-256,256S 242.616,832, 384,832s 256-114.616, 256-256S 525.386,320, 384,320zM 448,768L 320,768L 320,640L 192,640L 192,512L 320,512L 320,384L 448,384L 448,512L 576,512L 576,640L 448,640 	z" />
<glyph unicode="&#xe0a4;" d="M 992.262,88.604L 749.71,294.898c-25.074,22.566-51.89,32.926-73.552,31.926C 733.414,393.892, 768,480.902, 768,576
		C 768,788.078, 596.078,960, 384,960C 171.924,960,0,788.078,0,576c0-212.078, 171.922-384, 384-384c 95.098,0, 182.108,34.586, 249.176,91.844
		c-1-21.662, 9.36-48.478, 31.926-73.552l 206.294-242.552c 35.322-39.246, 93.022-42.554, 128.22-7.356S 1031.508,53.282, 992.262,88.604
		z M 384,320c-141.384,0-256,114.616-256,256S 242.616,832, 384,832s 256-114.616, 256-256S 525.386,320, 384,320zM 192,640L 576,640L 576,512L 192,512z" />
<glyph unicode="&#xe0a3;" d="M 1024,448c-1.278,66.862-15.784,133.516-42.576,194.462c-26.704,61-65.462,116.258-113.042,161.92
	c-47.552,45.696-103.944,81.82-164.984,105.652C 642.394,933.958, 576.802,945.386, 512,944c-64.81-1.282-129.332-15.374-188.334-41.356
	c-59.048-25.896-112.542-63.47-156.734-109.576c-44.224-46.082-79.16-100.708-102.186-159.798C 41.632,574.208, 30.618,510.75, 32,448
	c 1.286-62.76, 14.964-125.148, 40.134-182.206c 25.088-57.1, 61.476-108.828, 106.11-151.548c 44.61-42.754, 97.472-76.504, 154.614-98.72
	C 389.976-6.778, 451.304-17.376, 512-16c 60.708,1.29, 120.962,14.554, 176.076,38.914c 55.15,24.282, 105.116,59.48, 146.366,102.644
	c 41.282,43.14, 73.844,94.236, 95.254,149.43c 13.034,33.458, 21.88,68.4, 26.542,103.798c 1.246-0.072, 2.498-0.12, 3.762-0.12
	c 35.346,0, 64,28.652, 64,64c0,1.796-0.094,3.572-0.238,5.332L 1024,447.998 z M 922.306,278.052c-23.472-53.202-57.484-101.4-99.178-141.18
	c-41.67-39.81-91-71.186-144.244-91.79C 625.656,24.404, 568.594,14.63, 512,16c-56.604,1.298-112.596,13.736-163.82,36.474
	c-51.25,22.666-97.684,55.49-135.994,95.712c-38.338,40.198-68.528,87.764-88.322,139.058C 103.994,338.528, 94.636,393.458, 96,448
	c 1.302,54.552, 13.328,108.412, 35.254,157.69c 21.858,49.3, 53.498,93.97, 92.246,130.81c 38.73,36.868, 84.53,65.87, 133.874,84.856
	C 406.712,840.416, 459.51,849.362, 512,848c 52.5-1.306, 104.228-12.918, 151.562-34.034c 47.352-21.050, 90.256-51.502, 125.624-88.782
	c 35.396-37.258, 63.21-81.294, 81.39-128.688C 888.824,549.104, 897.358,498.438, 896,448l 0.238,0 c-0.144-1.76-0.238-3.536-0.238-5.332
	c0-33.012, 24.992-60.174, 57.086-63.624C 946.862,344.222, 936.556,310.226, 922.306,278.052z" />
<glyph unicode="&#xe0a2;" d="M 384,832A128,128 13140 1 1 640,832A128,128 13140 1 1 384,832zM 655.53,719.53A128,128 13140 1 1 911.53,719.53A128,128 13140 1 1 655.53,719.53zM 832,448A64,64 13140 1 1 960,448A64,64 13140 1 1 832,448zM 719.53,176.47A64,64 13140 1 1 847.53,176.47000000000003A64,64 13140 1 1 719.53,176.47000000000003zM 448.002,64A64,64 13140 1 1 576.002,64A64,64 13140 1 1 448.002,64zM 176.472,176.47A64,64 13140 1 1 304.472,176.47000000000003A64,64 13140 1 1 176.472,176.47000000000003zM 144.472,719.53A96,96 13140 1 1 336.472,719.53A96,96 13140 1 1 144.472,719.53zM 56,448A72,72 13140 1 1 200,448A72,72 13140 1 1 56,448z" />
</font>
</defs>
</svg>
